<?xml version="1.0" standalone="no"?>
<!DOCTYPE svg PUBLIC "-//W3C//DTD SVG 20010904//EN"
 "http://www.w3.org/TR/2001/REC-SVG-20010904/DTD/svg10.dtd">
<svg version="1.0" xmlns="http://www.w3.org/2000/svg"
 width="4389.000000pt" height="3392.000000pt" viewBox="0 0 4389.000000 3392.000000"
 preserveAspectRatio="xMidYMid meet">
<metadata>

</metadata>
<g transform="translate(0.000000,3392.000000) scale(0.100000,-0.100000)"
fill="#000000" stroke="none">
<path d="M1770 17330 l0 -16580 310 0 c303 0 310 0 310 20 0 20 -7 20 -285 20
l-285 0 0 16540 0 16540 20130 0 20130 0 0 -16540 0 -16540 -12930 0 c-12923
0 -12930 0 -12930 -20 0 -20 7 -20 12950 -20 l12950 0 0 16580 0 16580 -20175
0 -20175 0 0 -16580z"/>
<path d="M7551 31207 c-13 -6 -34 -25 -45 -40 l-21 -28 0 -3379 0 -3379 21
-28 c11 -15 32 -34 45 -40 19 -10 688 -13 3147 -13 l3122 0 38 34 37 34 0
3392 0 3392 -37 34 -38 34 -3122 0 c-2459 0 -3128 -3 -3147 -13z m6295 -41
l34 -34 0 -3370 0 -3370 -26 -31 c-14 -17 -42 -35 -62 -41 -50 -14 -6152 -14
-6203 0 -19 6 -46 22 -60 36 l-24 26 0 3380 0 3380 33 29 32 29 3121 0 3121 0
34 -34z"/>
<path d="M10594 30546 c-146 -33 -268 -130 -330 -260 -19 -39 -36 -93 -40
-121 -9 -81 -5 -80 -104 -30 -49 25 -90 43 -90 40 0 -3 9 -24 20 -45 l20 -40
-345 0 -345 0 0 -270 0 -270 -40 20 -41 21 46 -90 45 -91 -27 -5 c-160 -30
-235 -67 -315 -154 -57 -62 -92 -127 -113 -208 -69 -263 115 -539 389 -586
l64 -11 -44 -88 c-24 -48 -41 -88 -37 -88 5 1 19 7 33 15 14 8 28 14 32 15 4
0 9 -120 10 -267 l3 -268 343 -3 342 -2 -20 -40 -21 -41 89 45 c50 25 92 42
96 39 3 -4 6 -21 6 -40 0 -18 9 -62 21 -96 52 -156 174 -270 336 -312 263 -69
539 115 586 389 l11 64 88 -44 c48 -24 88 -41 88 -37 -1 5 -7 19 -15 33 -8 14
-14 28 -15 33 0 4 153 7 340 7 l340 0 0 270 c0 149 2 270 5 270 4 0 20 -7 36
-16 17 -8 33 -13 36 -11 2 3 -14 42 -37 87 -23 45 -40 83 -38 85 2 1 32 8 68
14 153 29 281 127 347 266 32 68 37 88 41 175 7 156 -31 258 -139 367 -67 67
-172 122 -252 130 -32 3 -60 10 -63 14 -2 4 13 44 36 88 22 44 40 83 40 86 0
3 -18 -4 -40 -15 l-40 -20 0 270 0 270 -340 0 c-231 0 -340 3 -340 10 0 6 7
24 15 40 9 17 13 30 10 30 -3 0 -42 -18 -86 -41 -45 -22 -82 -39 -84 -37 -1 2
-7 32 -13 67 -46 264 -311 445 -568 387z m188 -27 c301 -63 451 -405 295 -671
-32 -54 -121 -139 -175 -167 -276 -141 -603 26 -654 333 -50 300 234 568 534
505z m-712 -454 c0 -3 -9 -24 -20 -46 l-21 -40 91 46 c99 50 95 51 104 -30 4
-27 22 -83 41 -123 65 -137 192 -234 345 -263 36 -6 66 -13 68 -14 2 -2 -15
-39 -37 -84 -23 -44 -41 -83 -41 -86 0 -3 13 1 30 10 16 8 34 15 40 15 7 0 10
-84 10 -255 l0 -255 -330 0 -330 0 20 40 c11 21 20 42 20 45 0 3 -40 -15 -90
-40 -49 -25 -91 -45 -93 -45 -3 0 -7 28 -10 61 -7 84 -63 194 -132 264 -64 63
-177 123 -251 131 -80 10 -81 11 -35 102 23 45 41 84 41 87 0 3 -18 -4 -40
-15 l-40 -20 0 260 0 260 330 0 c182 0 330 -2 330 -5z m1280 -78 c-1 5 -7 19
-15 33 -29 51 -38 50 310 50 l325 0 0 -260 0 -260 -40 20 -41 21 46 -90 c44
-89 45 -91 23 -95 -13 -2 -48 -9 -80 -16 -178 -35 -327 -193 -360 -380 -6 -36
-12 -66 -14 -68 -1 -2 -43 17 -93 43 l-92 46 21 -40 c11 -22 20 -43 20 -46 0
-3 -146 -5 -325 -5 l-325 0 0 255 c0 140 3 255 8 255 4 -1 18 -7 32 -15 14 -8
28 -14 33 -15 4 0 -13 40 -37 89 l-45 88 65 11 c199 33 362 195 396 394 l12
66 88 -44 c48 -24 88 -41 88 -37z m-1869 -617 c231 -43 399 -278 361 -505 -53
-319 -398 -484 -674 -322 -65 38 -145 128 -180 202 -61 130 -48 300 31 423
103 158 280 236 462 202z m2608 -5 c178 -42 313 -189 341 -372 49 -312 -251
-580 -556 -499 -128 34 -230 119 -291 243 -37 76 -38 79 -38 193 0 114 1 117
38 192 75 153 232 254 397 257 25 0 74 -6 109 -14z m-2118 -490 l90 -46 -21
41 -20 40 330 0 330 0 0 -255 0 -255 -40 20 c-22 11 -40 18 -40 15 0 -3 18
-41 40 -85 22 -44 40 -84 40 -88 0 -5 -28 -12 -61 -15 -84 -7 -191 -61 -262
-131 -69 -68 -126 -178 -134 -259 -3 -32 -10 -60 -14 -63 -4 -2 -44 13 -88 36
-44 22 -83 40 -86 40 -3 0 4 -18 15 -40 l20 -40 -330 0 -330 0 0 255 c0 140 2
255 5 255 4 0 20 -7 36 -16 17 -8 33 -13 36 -11 2 3 -14 42 -37 87 -23 45 -40
83 -38 85 2 1 32 7 68 14 152 28 280 126 346 265 24 49 38 96 41 136 3 33 7
60 10 60 2 0 44 -20 94 -45z m1567 -108 c56 -159 203 -280 375 -310 l65 -11
-44 -88 c-24 -48 -41 -88 -37 -88 5 1 19 7 33 15 14 8 28 14 33 15 4 0 7 -115
7 -255 l0 -255 -325 0 c-179 0 -325 2 -325 5 0 4 7 20 16 36 8 17 13 33 11 36
-3 2 -42 -14 -87 -37 -45 -23 -83 -40 -85 -38 -1 2 -7 32 -14 68 -24 128 -103
250 -207 316 -60 39 -159 74 -207 74 -19 0 -36 3 -40 6 -3 4 14 46 39 96 l45
89 -41 -21 -40 -20 0 255 0 255 325 0 c179 0 325 -3 325 -7 -1 -5 -7 -19 -15
-33 -8 -14 -14 -28 -15 -33 0 -4 39 13 88 37 l87 44 7 -49 c5 -27 16 -73 26
-102z m-767 -547 c427 -81 504 -653 113 -846 -174 -87 -395 -42 -528 106 -86
95 -129 245 -107 371 32 178 158 316 331 361 77 20 118 22 191 8z"/>
<path d="M10120 26090 l0 -210 30 0 c23 0 30 4 30 20 0 18 2 18 36 -5 43 -29
73 -31 121 -8 40 19 72 77 73 131 0 49 -33 107 -74 126 -45 21 -74 20 -113 -4
l-33 -20 0 90 0 90 -35 0 -35 0 0 -210z m197 -12 c31 -29 32 -92 1 -125 -48
-51 -130 -13 -130 62 0 74 77 112 129 63z"/>
<path d="M11510 26210 c0 -89 -6 -104 -30 -75 -35 42 -135 21 -170 -37 -45
-74 -16 -184 57 -214 43 -19 96 -11 124 17 19 19 19 19 19 -1 0 -16 7 -20 30
-20 l30 0 0 210 0 210 -30 0 -30 0 0 -90z m-45 -116 c21 -8 45 -56 45 -89 0
-35 -42 -75 -78 -75 -49 0 -77 31 -77 85 0 37 5 51 24 66 24 19 56 24 86 13z"/>
<path d="M12240 26090 l0 -210 35 0 35 0 0 210 0 210 -35 0 -35 0 0 -210z"/>
<path d="M8770 26079 l0 -202 103 5 c102 5 146 18 191 57 32 28 56 88 56 141
0 137 -87 200 -275 200 l-75 0 0 -201z m210 123 c64 -32 89 -122 52 -191 -25
-47 -74 -71 -144 -71 l-58 0 0 140 0 140 58 0 c34 0 71 -7 92 -18z"/>
<path d="M11790 26080 l0 -200 30 0 30 0 0 85 0 85 90 0 90 0 0 30 0 30 -90 0
-90 0 0 55 0 55 95 0 95 0 0 30 0 30 -125 0 -125 0 0 -200z"/>
<path d="M9600 26190 c0 -36 -2 -40 -25 -40 -21 0 -25 -5 -25 -30 0 -25 4 -30
25 -30 25 0 25 -1 25 -83 0 -94 13 -122 60 -132 44 -10 70 2 70 31 0 18 -5 24
-23 24 -37 0 -47 19 -47 92 l0 68 35 0 c32 0 35 2 35 30 0 28 -3 30 -35 30
-34 0 -35 1 -35 40 0 38 -2 40 -30 40 -28 0 -30 -2 -30 -40z"/>
<path d="M10810 26190 c0 -36 -2 -40 -25 -40 -21 0 -25 -5 -25 -30 0 -25 4
-30 25 -30 25 0 25 -1 25 -83 0 -94 13 -122 60 -132 44 -10 70 2 70 31 0 18
-5 24 -23 24 -37 0 -47 19 -47 92 l0 68 35 0 c32 0 35 2 35 30 0 28 -3 30 -35
30 -34 0 -35 1 -35 40 0 38 -2 40 -30 40 -28 0 -30 -2 -30 -40z"/>
<path d="M9364 26146 c-34 -15 -44 -33 -44 -75 0 -35 23 -56 76 -70 23 -6 47
-18 54 -26 29 -35 -43 -62 -85 -31 -16 12 -22 12 -42 -1 -22 -15 -23 -17 -7
-34 42 -47 148 -48 184 -2 42 54 17 104 -65 127 -60 18 -73 30 -55 51 15 18
53 19 80 3 17 -11 23 -9 41 9 l21 21 -25 17 c-36 23 -96 28 -133 11z"/>
<path d="M9871 26134 c-30 -25 -31 -25 -31 -5 0 17 -6 21 -30 21 l-30 0 0
-135 0 -135 35 0 35 0 0 90 c0 100 15 130 65 130 21 0 25 5 25 30 0 39 -26 40
-69 4z"/>
<path d="M11065 26153 c-32 -9 -65 -34 -81 -64 -22 -44 -18 -120 9 -160 41
-61 141 -75 201 -28 31 25 32 30 5 47 -18 11 -24 11 -38 -2 -27 -24 -78 -20
-106 9 -14 13 -25 29 -25 35 0 6 37 10 100 10 l100 0 0 35 c0 89 -73 141 -165
118z"/>
<path d="M12465 26153 c-32 -9 -65 -34 -81 -64 -22 -44 -18 -120 9 -160 41
-61 141 -75 201 -28 31 25 32 30 5 47 -18 11 -24 11 -38 -2 -27 -24 -78 -20
-106 9 -14 13 -25 29 -25 35 0 6 37 10 100 10 l100 0 0 35 c0 89 -73 141 -165
118z"/>
<path d="M9190 26015 l0 -135 35 0 35 0 0 135 0 135 -35 0 -35 0 0 -135z"/>
<path d="M9980 26015 l0 -135 35 0 35 0 0 135 0 135 -35 0 -35 0 0 -135z"/>
<path d="M10470 26050 c0 -114 14 -154 58 -171 37 -14 88 -3 107 24 l15 21 0
-22 c0 -18 6 -22 30 -22 l30 0 0 135 0 135 -30 0 -30 0 0 -90 c0 -78 -3 -93
-21 -111 -27 -27 -70 -22 -86 11 -7 14 -13 61 -13 108 l0 82 -30 0 -30 0 0
-100z"/>
<path d="M12100 26015 l0 -135 35 0 35 0 0 135 0 135 -35 0 -35 0 0 -135z"/>
<path d="M11940 25490 c0 -89 -6 -104 -30 -75 -35 42 -135 21 -170 -37 -45
-74 -16 -184 57 -214 43 -19 96 -11 124 17 19 19 19 19 19 -1 0 -16 7 -20 30
-20 l30 0 0 210 0 210 -30 0 -30 0 0 -90z m-45 -116 c21 -8 45 -56 45 -89 0
-35 -42 -75 -78 -75 -49 0 -77 31 -77 85 0 37 5 51 24 66 24 19 56 24 86 13z"/>
<path d="M8896 25560 c-63 -19 -96 -78 -77 -139 12 -42 35 -61 96 -81 64 -20
85 -37 85 -69 0 -42 -31 -65 -81 -58 -22 3 -48 12 -58 21 -16 15 -19 14 -39
-7 -21 -23 -22 -24 -4 -40 10 -9 40 -22 67 -28 102 -23 185 29 185 115 0 61
-26 90 -105 116 -84 28 -105 60 -65 100 24 24 76 26 106 5 19 -13 23 -12 43 9
25 26 18 36 -38 55 -39 13 -74 13 -115 1z"/>
<path d="M10970 25360 l0 -200 30 0 29 0 3 157 3 156 95 -156 94 -157 43 0 43
0 0 200 0 200 -35 0 -34 0 -3 -145 -3 -145 -90 145 -89 145 -43 0 -43 0 0
-200z"/>
<path d="M9150 25470 c0 -36 -2 -40 -25 -40 -21 0 -25 -5 -25 -30 0 -25 4 -30
25 -30 25 0 25 -1 25 -83 0 -94 13 -122 60 -132 44 -10 70 2 70 31 0 18 -5 24
-23 24 -37 0 -47 19 -47 92 l0 68 35 0 c32 0 35 2 35 30 0 28 -3 30 -35 30
-34 0 -35 1 -35 40 0 38 -2 40 -30 40 -28 0 -30 -2 -30 -40z"/>
<path d="M9383 25421 c-50 -23 -73 -63 -73 -126 0 -60 24 -100 75 -125 51 -25
78 -25 132 -1 49 23 75 65 75 125 2 111 -105 176 -209 127z m122 -66 c65 -64
-4 -172 -90 -139 -26 10 -48 62 -40 100 11 63 85 85 130 39z"/>
<path d="M9741 25414 c-30 -25 -31 -25 -31 -5 0 17 -6 21 -30 21 l-30 0 0
-135 0 -135 35 0 35 0 0 90 c0 100 15 130 65 130 21 0 25 5 25 30 0 39 -26 40
-69 4z"/>
<path d="M9903 25421 c-47 -22 -51 -30 -25 -54 15 -13 19 -14 36 -1 28 20 80
18 99 -4 10 -10 17 -21 17 -24 0 -3 -26 -9 -57 -13 -118 -15 -165 -72 -113
-138 36 -46 133 -45 160 2 8 13 9 12 10 -6 0 -19 6 -23 31 -23 l31 0 -4 110
c-3 101 -5 111 -28 135 -36 35 -102 42 -157 16z"/>
<path d="M10223 25425 c-98 -42 -96 -210 2 -251 45 -19 63 -18 109 6 l38 19
-5 -37 c-11 -67 -79 -92 -149 -56 -31 16 -33 16 -50 -6 -23 -29 -17 -36 44
-55 67 -20 94 -19 146 5 63 29 72 58 72 235 l0 145 -30 0 c-19 0 -30 -5 -30
-14 0 -11 -8 -10 -37 5 -44 22 -67 23 -110 4z m122 -60 c65 -64 -4 -172 -90
-139 -26 10 -48 62 -40 100 11 63 85 85 130 39z"/>
<path d="M10595 25433 c-32 -9 -65 -34 -81 -64 -22 -44 -18 -120 9 -160 41
-61 141 -75 201 -28 31 25 32 30 5 47 -18 11 -24 11 -38 -2 -27 -24 -78 -20
-106 9 -14 13 -25 29 -25 35 0 6 37 10 100 10 l100 0 0 35 c0 89 -73 141 -165
118z"/>
<path d="M11453 25421 c-50 -23 -73 -63 -73 -126 0 -60 24 -100 75 -125 51
-25 78 -25 132 -1 49 23 75 65 75 125 2 111 -105 176 -209 127z m122 -66 c65
-64 -4 -172 -90 -139 -26 10 -48 62 -40 100 11 63 85 85 130 39z"/>
<path d="M12165 25433 c-32 -9 -65 -34 -81 -64 -22 -44 -18 -120 9 -160 41
-61 141 -75 201 -28 31 25 32 30 5 47 -18 11 -24 11 -38 -2 -27 -24 -78 -20
-106 9 -14 13 -25 29 -25 35 0 6 37 10 100 10 l100 0 0 35 c0 89 -73 141 -165
118z"/>
<path d="M12434 25426 c-34 -15 -44 -33 -44 -75 0 -35 23 -56 76 -70 23 -6 47
-18 54 -26 29 -35 -43 -62 -85 -31 -16 12 -22 12 -42 -1 -22 -15 -23 -17 -7
-34 42 -47 148 -48 184 -2 42 54 17 104 -65 127 -60 18 -73 30 -55 51 15 18
53 19 80 3 17 -11 23 -9 41 9 l21 21 -25 17 c-36 23 -96 28 -133 11z"/>
<path d="M22048 31204 c-63 -34 -58 252 -58 -3444 0 -2994 2 -3374 15 -3400
34 -65 -237 -60 3190 -60 3427 0 3156 -5 3190 60 13 26 15 406 15 3400 0 2994
-2 3374 -15 3400 -34 65 237 60 -3192 60 -2738 -1 -3121 -3 -3145 -16z m6295
-24 c15 -12 31 -38 37 -58 15 -57 13 -6686 -3 -6731 -7 -19 -25 -44 -40 -55
l-28 -21 -3113 0 c-2997 0 -3113 1 -3140 18 -60 40 -56 -217 -56 3427 0 3609
-3 3386 51 3424 22 15 275 16 3145 16 l3121 0 26 -20z"/>
<path d="M24972 30453 l-202 -118 2 -244 3 -245 192 -111 c106 -61 198 -116
204 -122 7 -7 -3 -36 -35 -102 -26 -50 -43 -91 -39 -91 5 1 19 7 33 15 14 8
28 14 33 15 4 0 7 -115 7 -255 l0 -255 -325 0 c-220 0 -325 3 -325 10 0 6 7
24 15 40 9 17 13 30 10 30 -3 0 -47 -21 -97 -46 l-93 -46 95 -48 c52 -26 96
-47 98 -45 2 2 -4 17 -12 34 -9 16 -16 32 -16 36 0 3 146 5 325 5 l325 0 0
-255 0 -255 -40 20 c-22 11 -40 18 -40 15 0 -3 20 -46 45 -95 41 -83 44 -91
28 -101 -10 -6 -101 -59 -203 -117 l-185 -107 -2 -245 -3 -245 191 -110 c105
-60 199 -114 209 -119 14 -6 66 19 224 110 l206 119 0 245 -1 245 -122 69
c-67 38 -159 92 -204 118 l-83 49 45 89 c25 49 45 92 45 95 0 3 -18 -4 -40
-15 l-40 -20 0 255 0 255 325 0 c179 0 325 -2 325 -5 0 -4 -7 -20 -16 -36 -8
-17 -14 -32 -12 -34 2 -2 46 19 98 45 l95 48 -93 46 c-50 25 -94 46 -97 46 -3
0 4 -18 15 -40 l20 -40 -330 0 -330 0 0 255 c0 140 2 255 5 255 4 0 20 -7 36
-16 17 -8 33 -13 36 -11 2 3 -16 46 -41 96 -42 83 -45 92 -29 102 10 6 101 59
203 117 l185 107 3 245 2 245 -195 114 c-108 62 -204 115 -213 117 -9 2 -108
-49 -220 -113z m414 -15 c107 -61 193 -112 192 -113 -2 -1 -90 -53 -197 -114
l-194 -112 -198 113 c-114 65 -192 116 -186 120 112 67 374 217 381 218 5 0
96 -50 202 -112z m-396 -247 l185 -107 3 -222 c1 -122 -1 -222 -5 -222 -5 1
-91 49 -193 108 l-185 108 -3 222 c-1 122 1 222 5 222 5 -1 91 -49 193 -109z
m600 -110 l0 -218 -194 -112 c-106 -61 -196 -111 -200 -111 -3 0 -5 100 -4
221 l3 222 185 108 c102 59 191 108 198 108 9 1 12 -49 12 -218z m-224 -1954
c99 -57 187 -108 197 -114 16 -8 -12 -27 -176 -121 -107 -62 -197 -112 -201
-112 -4 0 -95 50 -202 111 l-194 112 198 113 c108 63 198 114 198 114 1 0 82
-46 180 -103z m-373 -261 l187 -108 0 -220 c0 -173 -3 -219 -13 -216 -7 2 -95
50 -195 108 l-182 105 0 223 c0 123 3 221 8 219 4 -2 91 -52 195 -111z m595
-107 l-3 -222 -188 -108 c-104 -60 -192 -109 -198 -109 -5 0 -9 89 -9 219 l0
218 193 111 c105 62 195 112 200 112 4 0 6 -100 5 -221z"/>
<path d="M24540 30140 c11 -21 20 -42 20 -45 0 -3 -153 -5 -340 -5 l-340 0 0
-270 0 -270 -40 20 c-21 11 -42 20 -45 20 -2 0 16 -43 42 -95 26 -52 45 -96
43 -98 -3 -3 -95 -56 -205 -120 l-200 -115 0 -242 0 -242 195 -114 c107 -62
199 -115 204 -117 4 -1 -10 -40 -33 -85 -22 -45 -41 -84 -41 -87 0 -3 13 1 30
10 16 8 34 15 40 15 7 0 10 -88 10 -270 l0 -270 340 0 340 0 -20 -40 c-11 -22
-17 -40 -13 -39 5 0 51 22 103 48 l95 49 -103 51 -103 52 21 -40 c11 -22 20
-43 20 -46 0 -3 -146 -5 -325 -5 l-325 0 0 255 c0 140 3 255 8 255 4 -1 18 -7
32 -15 14 -8 28 -14 33 -15 4 0 -11 36 -33 81 -23 44 -40 85 -38 90 2 5 91 60
198 122 l195 112 0 244 0 245 -195 113 c-107 62 -199 114 -205 116 -5 2 11 48
38 101 l47 96 -40 -20 -40 -20 0 260 0 260 325 0 c179 0 325 -2 325 -5 0 -3
-9 -24 -20 -45 l-20 -40 95 47 c52 26 95 50 95 53 0 3 -43 27 -95 53 l-95 47
20 -40z m-453 -871 c107 -62 190 -115 186 -120 -4 -4 -91 -55 -192 -114 -115
-66 -190 -104 -200 -100 -26 10 -382 217 -379 220 5 5 383 224 387 225 2 0 91
-50 198 -111z m-397 -247 l185 -107 3 -222 c1 -123 -1 -223 -5 -222 -5 0 -91
49 -193 108 l-185 107 -3 222 c-1 122 1 222 5 222 5 -1 91 -49 193 -108z m600
-114 l-1 -223 -188 -107 c-104 -60 -191 -108 -195 -108 -3 0 -5 100 -4 222 l3
221 185 108 c102 59 188 108 193 108 4 1 7 -99 7 -221z"/>
<path d="M25753 30132 c-51 -26 -93 -49 -93 -52 0 -3 43 -27 95 -53 l95 -47
-20 40 c-11 21 -20 42 -20 45 0 3 147 4 328 3 l327 -3 3 -258 2 -258 -39 21
c-22 11 -43 20 -46 20 -2 0 16 -43 43 -96 26 -54 43 -99 37 -101 -5 -2 -98
-55 -205 -117 l-195 -113 0 -244 0 -243 165 -95 c91 -53 183 -106 203 -118
l37 -23 -40 -80 c-22 -44 -40 -82 -40 -85 0 -3 13 1 30 10 16 8 34 15 40 15 7
0 10 -84 10 -255 l0 -255 -330 0 c-181 0 -330 2 -330 5 0 3 9 24 20 46 l21 40
-103 -52 -103 -51 95 -49 c52 -26 98 -48 103 -48 4 -1 -2 17 -13 39 l-20 40
340 0 340 0 0 270 c0 289 -1 284 50 255 14 -8 28 -14 33 -15 4 0 -11 36 -33
81 -23 44 -40 85 -38 90 2 6 91 61 198 123 l195 112 0 243 0 244 -195 113
c-107 62 -199 115 -205 117 -5 2 11 47 37 101 27 53 45 96 43 96 -3 0 -24 -9
-45 -20 l-40 -20 0 270 0 270 -340 0 c-187 0 -340 2 -340 5 0 3 9 24 20 45 11
22 19 40 18 39 -2 0 -45 -21 -95 -47z m924 -864 c106 -61 190 -115 186 -119
-4 -4 -91 -55 -193 -114 l-185 -107 -60 32 c-109 58 -336 192 -333 196 6 5
382 223 387 224 2 0 91 -50 198 -112z m-397 -247 l185 -107 3 -222 c1 -122 -1
-222 -5 -222 -5 1 -91 49 -193 108 l-185 108 -3 222 c-1 122 1 222 5 222 5 -1
91 -49 193 -109z m598 -113 l-3 -222 -185 -108 c-102 -59 -188 -108 -193 -108
-4 0 -6 100 -5 222 l3 222 185 107 c102 59 188 108 193 108 4 1 6 -99 5 -221z"/>
<path d="M24645 26301 c-36 -15 -55 -47 -62 -100 -5 -45 -8 -51 -29 -51 -20 0
-24 -5 -24 -30 0 -25 4 -30 25 -30 l25 0 0 -105 0 -105 35 0 35 0 0 105 0 105
30 0 c27 0 30 3 30 30 0 27 -3 30 -30 30 -28 0 -30 2 -30 38 0 43 14 62 47 62
19 0 23 5 23 30 0 26 -3 30 -27 29 -16 0 -37 -4 -48 -8z"/>
<path d="M25990 26095 l0 -215 35 0 35 0 0 72 0 72 53 -72 c50 -69 53 -71 95
-72 l44 0 -30 38 c-17 20 -44 53 -60 72 l-30 35 55 63 55 62 -40 0 c-36 0 -45
-6 -91 -57 l-51 -57 0 137 0 137 -35 0 -35 0 0 -215z"/>
<path d="M23550 26090 l0 -210 30 0 c23 0 30 4 30 20 0 18 2 18 36 -5 43 -29
73 -31 121 -8 40 19 72 77 73 131 0 49 -33 107 -74 126 -45 21 -74 20 -113 -4
l-33 -20 0 90 0 90 -35 0 -35 0 0 -210z m197 -12 c31 -29 32 -92 1 -125 -48
-51 -130 -13 -130 62 0 74 77 112 129 63z"/>
<path d="M25230 26090 l0 -210 35 0 35 0 0 210 0 210 -35 0 -35 0 0 -210z"/>
<path d="M26540 26090 l0 -210 35 0 35 0 0 88 c0 101 14 132 59 132 44 0 51
-15 51 -122 l0 -98 35 0 35 0 0 96 c0 111 -16 156 -61 174 -32 14 -75 6 -101
-17 -17 -15 -18 -11 -18 75 l0 92 -35 0 -35 0 0 -210z"/>
<path d="M22820 26079 l0 -202 103 5 c102 5 146 18 191 57 32 28 56 88 56 141
0 137 -87 200 -275 200 l-75 0 0 -201z m210 123 c64 -32 89 -122 52 -191 -25
-47 -74 -71 -144 -71 l-58 0 0 140 0 140 58 0 c34 0 71 -7 92 -18z"/>
<path d="M24890 26081 l0 -201 78 0 c152 1 206 32 200 118 -3 40 -8 50 -36 69
-31 20 -32 22 -14 32 29 15 46 66 36 103 -16 56 -52 73 -165 76 l-99 4 0 -201z
m198 -47 c27 -19 28 -48 2 -74 -16 -16 -33 -20 -80 -20 l-60 0 0 55 0 55 58 0
c36 0 66 -6 80 -16z"/>
<path d="M23325 26153 c-32 -9 -65 -34 -81 -64 -22 -44 -18 -120 9 -160 41
-61 141 -75 201 -28 31 25 32 30 5 47 -18 11 -24 11 -38 -2 -27 -24 -78 -20
-106 9 -14 13 -25 29 -25 35 0 6 37 10 100 10 l100 0 0 35 c0 89 -73 141 -165
118z"/>
<path d="M23991 26134 c-30 -25 -31 -25 -31 -5 0 17 -6 21 -30 21 l-30 0 0
-135 0 -135 35 0 35 0 0 90 c0 100 15 130 65 130 21 0 25 5 25 30 0 39 -26 40
-69 4z"/>
<path d="M24335 26153 c-32 -9 -65 -34 -81 -64 -22 -44 -18 -120 9 -160 41
-61 141 -75 201 -28 31 25 32 30 5 47 -18 11 -24 11 -38 -2 -27 -24 -78 -20
-106 9 -14 13 -25 29 -25 35 0 6 37 10 100 10 l100 0 0 35 c0 89 -73 141 -165
118z"/>
<path d="M25443 26141 c-50 -23 -73 -63 -73 -126 0 -60 24 -100 75 -125 51
-25 78 -25 132 -1 49 23 75 65 75 125 2 111 -105 176 -209 127z m122 -66 c65
-64 -4 -172 -90 -139 -26 10 -48 62 -40 100 11 63 85 85 130 39z"/>
<path d="M25783 26141 c-50 -23 -73 -62 -73 -126 0 -79 38 -126 113 -140 36
-7 102 8 113 26 3 6 -1 18 -11 29 -13 15 -21 16 -44 7 -44 -16 -80 -2 -97 39
-18 42 -5 98 26 114 25 13 63 13 77 -1 9 -9 18 -8 38 5 30 20 25 33 -21 52
-44 19 -71 17 -121 -5z"/>
<path d="M26343 26141 c-50 -23 -73 -62 -73 -126 0 -79 38 -126 113 -140 36
-7 102 8 113 26 3 6 -1 18 -11 29 -13 15 -21 16 -44 7 -44 -16 -80 -2 -97 39
-18 42 -5 98 26 114 25 13 63 13 77 -1 9 -9 18 -8 38 5 30 20 25 33 -21 52
-44 19 -71 17 -121 -5z"/>
<path d="M26913 26141 c-47 -22 -51 -30 -25 -54 15 -13 19 -14 36 -1 28 20 80
18 99 -4 10 -10 17 -21 17 -24 0 -3 -26 -9 -57 -13 -118 -15 -165 -72 -113
-138 36 -46 133 -45 160 2 8 13 9 12 10 -6 0 -19 6 -23 31 -23 l31 0 -4 110
c-3 101 -5 111 -28 135 -36 35 -102 42 -157 16z"/>
<path d="M27403 26140 c-27 -16 -33 -17 -33 -5 0 10 -10 15 -30 15 l-30 0 0
-135 0 -135 35 0 35 0 0 98 c0 106 11 132 58 132 42 0 52 -24 52 -131 l0 -99
36 0 36 0 -4 111 c-3 111 -3 111 -36 140 -38 34 -74 37 -119 9z"/>
<path d="M24100 26015 l0 -135 35 0 35 0 0 135 0 135 -35 0 -35 0 0 -135z"/>
<path d="M27170 26015 l0 -135 35 0 35 0 0 135 0 135 -35 0 -35 0 0 -135z"/>
<path d="M25360 25490 c0 -89 -6 -104 -30 -75 -35 42 -135 21 -170 -37 -45
-74 -16 -184 57 -214 43 -19 96 -11 124 17 19 19 19 19 19 -1 0 -16 7 -20 30
-20 l30 0 0 210 0 210 -30 0 -30 0 0 -90z m-45 -116 c21 -8 45 -56 45 -89 0
-35 -42 -75 -78 -75 -49 0 -77 31 -77 85 0 37 5 51 24 66 24 19 56 24 86 13z"/>
<path d="M24390 25360 l0 -200 30 0 29 0 3 157 3 156 95 -156 94 -157 43 0 43
0 0 200 0 200 -35 0 -34 0 -3 -145 -3 -145 -90 145 -89 145 -43 0 -43 0 0
-200z"/>
<path d="M24883 25421 c-50 -23 -73 -63 -73 -126 0 -60 24 -100 75 -125 51
-25 78 -25 132 -1 49 23 75 65 75 125 2 111 -105 176 -209 127z m122 -66 c65
-64 -4 -172 -90 -139 -26 10 -48 62 -40 100 11 63 85 85 130 39z"/>
<path d="M25585 25433 c-32 -9 -65 -34 -81 -64 -22 -44 -18 -120 9 -160 41
-61 141 -75 201 -28 31 25 32 30 5 47 -18 11 -24 11 -38 -2 -27 -24 -78 -20
-106 9 -14 13 -25 29 -25 35 0 6 37 10 100 10 l100 0 0 35 c0 89 -73 141 -165
118z"/>
<path d="M25854 25426 c-34 -15 -44 -33 -44 -75 0 -35 23 -56 76 -70 23 -6 47
-18 54 -26 29 -35 -43 -62 -85 -31 -16 12 -22 12 -42 -1 -22 -15 -23 -17 -7
-34 42 -47 148 -48 184 -2 42 54 17 104 -65 127 -60 18 -73 30 -55 51 15 18
53 19 80 3 17 -11 23 -9 41 9 l21 21 -25 17 c-36 23 -96 28 -133 11z"/>
<path d="M10680 24039 c-38 -88 -189 -463 -187 -465 1 -2 44 21 95 51 l92 54
0 -3519 c0 -2337 3 -3520 10 -3520 7 0 11 1185 12 3519 l3 3519 94 -54 c69
-40 92 -50 88 -37 -6 22 -188 466 -193 472 -2 2 -8 -7 -14 -20z"/>
<path d="M25181 24039 c-10 -28 -152 -376 -176 -433 l-16 -38 43 24 c24 13 69
39 101 57 l57 33 -2 -1589 -3 -1588 -6247 -3 -6248 -2 0 -1735 c0 -954 -3
-1735 -6 -1735 -3 0 -44 23 -91 50 -47 28 -87 49 -89 47 -6 -5 189 -477 197
-477 7 0 201 471 196 476 -2 2 -42 -19 -90 -46 -47 -28 -89 -50 -92 -50 -3 0
-5 779 -5 1730 l0 1730 2883 -2 2882 -3 3 -962 c1 -530 -1 -963 -6 -963 -4 0
-45 22 -92 49 -46 27 -86 48 -88 46 -2 -1 41 -111 95 -244 54 -132 101 -237
104 -233 6 6 152 359 190 460 10 26 11 27 -103 -39 -36 -22 -69 -39 -72 -39
-3 0 -6 434 -6 965 l0 965 3140 0 3140 0 0 -965 c0 -531 -3 -965 -6 -965 -3 0
-36 17 -72 39 -115 66 -113 66 -102 36 32 -85 184 -451 189 -457 3 -4 50 101
104 233 54 133 97 243 95 244 -2 2 -42 -19 -88 -46 -47 -27 -88 -49 -92 -49
-5 0 -7 433 -6 963 l3 962 2935 0 2935 0 3 -962 c1 -530 -1 -963 -6 -963 -4 0
-45 22 -92 49 -46 27 -86 48 -88 46 -2 -1 41 -111 95 -244 54 -132 101 -237
104 -233 6 6 152 359 190 460 10 26 11 27 -103 -39 -36 -22 -69 -39 -72 -39
-3 0 -6 434 -6 965 l0 965 3485 0 c2779 0 3487 -3 3490 -12 3 -7 4 -444 3
-970 l-3 -956 -90 53 c-49 29 -92 52 -93 50 -2 -2 40 -112 94 -244 54 -132
101 -237 105 -233 9 9 199 475 196 478 -2 2 -44 -21 -95 -51 l-92 -54 0 975 0
974 -6245 0 c-4987 0 -6247 3 -6250 13 -3 6 -4 722 -3 1589 l3 1577 94 -54
c52 -31 95 -54 96 -53 3 4 -193 479 -200 486 -2 3 -9 -6 -14 -19z"/>
<path d="M15348 17954 c-59 -31 -58 -20 -58 -649 0 -632 -1 -618 60 -650 26
-13 380 -15 3154 -15 l3124 0 31 26 c17 14 35 42 41 62 15 55 12 1117 -3 1162
-7 19 -27 44 -46 57 l-34 23 -3121 0 c-2741 -1 -3124 -3 -3148 -16z m6261 -7
c19 -7 44 -25 55 -40 21 -28 21 -38 24 -595 2 -555 2 -568 -18 -600 -41 -67
221 -62 -3175 -62 -3333 0 -3131 -3 -3169 51 -14 21 -16 84 -16 605 0 572 0
582 21 608 11 14 35 30 52 35 51 15 6184 13 6226 -2z"/>
<path d="M17843 17480 c-29 -12 -43 -40 -43 -89 0 -37 -2 -41 -25 -41 -20 0
-25 -5 -25 -25 0 -20 5 -25 25 -25 25 0 25 -1 25 -90 0 -89 0 -90 25 -90 25 0
25 1 25 90 0 89 0 90 25 90 20 0 25 5 25 25 0 20 -5 25 -25 25 -22 0 -25 4
-25 33 0 37 15 57 42 57 13 0 18 8 18 25 0 27 -24 32 -67 15z"/>
<path d="M20080 17305 l0 -185 25 0 c23 0 24 4 27 61 l3 61 45 -61 c41 -55 48
-60 83 -61 l39 0 -51 59 c-28 32 -51 62 -51 67 0 5 21 30 47 56 l47 48 -34 0
c-27 0 -44 -9 -82 -47 l-48 -47 0 117 0 117 -25 0 -25 0 0 -185z"/>
<path d="M16920 17295 l0 -175 25 0 c19 0 25 5 25 22 0 21 0 21 21 2 14 -13
36 -19 66 -19 38 0 49 5 74 33 23 25 29 42 29 77 0 35 -6 52 -29 77 -25 28
-36 33 -74 33 -30 0 -52 -6 -66 -19 l-21 -19 0 81 c0 81 0 82 -25 82 l-25 0 0
-175z"/>
<path d="M16290 17290 l0 -172 88 4 c102 5 156 26 189 77 32 47 32 135 0 181
-37 56 -79 74 -184 78 l-93 4 0 -172z m211 82 c23 -26 29 -42 29 -80 0 -79
-48 -122 -135 -122 l-45 0 0 121 0 121 61 -4 c54 -4 66 -9 90 -36z"/>
<path d="M18155 17446 c-154 -57 -146 -271 12 -315 48 -14 70 -14 133 0 l50
11 0 84 0 84 -60 0 c-57 0 -60 -1 -60 -25 0 -22 4 -25 35 -25 34 0 35 -1 35
-39 0 -45 -10 -51 -77 -51 -38 0 -50 5 -79 34 -30 30 -34 40 -34 86 0 46 4 56
34 86 28 28 41 34 78 34 24 0 54 -7 66 -16 21 -15 25 -15 43 2 25 22 24 28 -6
42 -44 20 -126 24 -170 8z"/>
<path d="M18455 17299 c-39 -89 -71 -166 -73 -170 -2 -5 11 -9 28 -9 28 0 34
5 47 40 l16 40 77 0 77 0 13 -40 c12 -36 16 -40 47 -40 l33 0 -13 33 c-133
312 -130 307 -157 307 -23 0 -31 -13 -95 -161z"/>
<path d="M18823 17449 c-39 -11 -63 -43 -63 -85 0 -43 25 -69 85 -89 62 -20
75 -31 75 -61 0 -42 -57 -57 -112 -28 -27 14 -32 14 -46 0 -21 -21 -2 -43 50
-57 59 -15 113 -3 143 33 51 61 25 118 -71 152 -62 22 -80 50 -54 82 15 17 63
19 91 3 16 -8 25 -7 41 8 20 18 20 18 -19 35 -42 19 -72 21 -120 7z"/>
<path d="M19120 17449 c0 -6 21 -82 47 -170 46 -156 47 -159 74 -159 27 0 30
4 65 118 20 64 40 121 44 125 4 5 11 -4 14 -20 4 -15 21 -72 38 -125 29 -94
32 -98 59 -98 24 0 30 5 38 38 6 20 28 97 50 170 l39 132 -32 0 -31 0 -29
-112 c-16 -62 -32 -117 -36 -121 -4 -4 -23 45 -42 110 -33 116 -35 118 -65
121 -30 3 -31 2 -52 -70 -12 -40 -30 -97 -40 -127 l-17 -54 -33 126 c-33 126
-34 127 -62 127 -16 0 -29 -5 -29 -11z"/>
<path d="M16693 17334 c-41 -21 -67 -74 -58 -121 13 -69 86 -108 159 -83 49
16 64 37 40 55 -16 11 -21 11 -35 -1 -22 -20 -73 -17 -92 4 -10 10 -17 22 -17
25 0 4 38 7 85 7 84 0 85 0 85 25 0 83 -86 129 -167 89z"/>
<path d="M17220 17235 l0 -115 25 0 c24 0 25 2 25 68 0 77 17 112 56 112 19 0
24 5 24 26 0 23 -3 25 -27 20 -16 -4 -34 -14 -40 -23 -12 -15 -13 -15 -13 5 0
17 -6 22 -25 22 l-25 0 0 -115z"/>
<path d="M17553 17334 c-41 -21 -67 -74 -58 -121 13 -69 86 -108 159 -83 49
16 64 37 40 55 -16 11 -21 11 -35 -1 -22 -20 -73 -17 -92 4 -10 10 -17 22 -17
25 0 4 38 7 85 7 84 0 85 0 85 25 0 83 -86 129 -167 89z"/>
<path d="M19684 17343 c-12 -2 -34 -18 -50 -34 -36 -38 -41 -104 -9 -139 23
-26 74 -50 106 -50 60 0 119 57 119 115 0 79 -72 127 -166 108z"/>
<path d="M19900 17235 l0 -115 25 0 c24 0 25 2 25 68 0 77 17 112 56 112 19 0
24 5 24 26 0 23 -3 25 -27 20 -16 -4 -34 -14 -40 -23 -12 -15 -13 -15 -13 5 0
17 -6 22 -25 22 l-25 0 0 -115z"/>
<path d="M20363 17334 c-41 -21 -67 -74 -58 -121 13 -69 86 -108 159 -83 49
16 64 37 40 55 -16 11 -21 11 -35 -1 -22 -20 -73 -17 -92 4 -10 10 -17 22 -17
25 0 4 38 7 85 7 84 0 85 0 85 25 0 83 -86 129 -167 89z"/>
<path d="M20600 17235 l0 -115 25 0 c24 0 25 2 25 68 0 77 17 112 56 112 19 0
24 5 24 26 0 23 -3 25 -27 20 -16 -4 -34 -14 -40 -23 -12 -15 -13 -15 -13 5 0
17 -6 22 -25 22 l-25 0 0 -115z"/>
<path d="M22348 17954 c-59 -31 -58 -20 -58 -649 0 -632 -1 -618 60 -650 26
-13 306 -15 2454 -15 l2424 0 31 26 c17 14 35 42 41 62 15 55 12 1117 -3 1162
-7 19 -27 44 -46 57 l-34 23 -2421 0 c-2122 -1 -2424 -3 -2448 -16z m4861 -7
c19 -7 44 -25 55 -40 21 -28 21 -38 24 -595 2 -555 2 -568 -18 -600 -41 -67
151 -62 -2475 -62 -2576 0 -2431 -3 -2469 51 -14 21 -16 84 -16 605 0 572 0
582 21 608 11 14 35 30 52 35 51 15 4784 13 4826 -2z"/>
<path d="M24983 17480 c-29 -12 -43 -40 -43 -89 0 -37 -2 -41 -25 -41 -20 0
-25 -5 -25 -25 0 -20 5 -25 25 -25 25 0 25 -1 25 -90 0 -89 0 -90 25 -90 25 0
25 1 25 90 0 89 0 90 25 90 20 0 25 5 25 25 0 20 -5 25 -25 25 -22 0 -25 4
-25 33 0 37 15 57 42 57 13 0 18 8 18 25 0 27 -24 32 -67 15z"/>
<path d="M24060 17295 l0 -175 25 0 c19 0 25 5 25 22 0 21 0 21 21 2 14 -13
36 -19 66 -19 38 0 49 5 74 33 23 25 29 42 29 77 0 35 -6 52 -29 77 -25 28
-36 33 -74 33 -30 0 -52 -6 -66 -19 l-21 -19 0 81 c0 81 0 82 -25 82 l-25 0 0
-175z"/>
<path d="M23420 17290 l0 -172 88 4 c102 5 156 26 189 77 32 47 32 135 0 181
-37 56 -79 74 -184 78 l-93 4 0 -172z m211 82 c23 -26 29 -42 29 -80 0 -79
-48 -122 -135 -122 l-45 0 0 121 0 121 61 -4 c54 -4 66 -9 90 -36z"/>
<path d="M25285 17445 c-118 -42 -151 -194 -60 -274 64 -56 172 -65 230 -19
l27 21 -23 18 c-22 16 -24 16 -47 -2 -15 -11 -40 -19 -64 -19 -32 0 -47 7 -74
34 -30 30 -34 40 -34 86 0 46 4 56 34 86 38 38 86 45 135 19 24 -12 31 -12 47
-1 15 12 16 16 5 30 -15 17 -73 36 -111 36 -14 -1 -43 -7 -65 -15z"/>
<path d="M25530 17291 l0 -171 25 0 25 0 0 137 c0 75 3 134 6 131 3 -4 27 -64
54 -135 37 -100 52 -129 68 -131 20 -3 35 28 98 206 10 28 22 52 26 52 5 0 8
-58 8 -130 l0 -130 25 0 25 0 0 170 0 170 -44 0 c-50 0 -39 16 -105 -165 -24
-64 -31 -76 -37 -60 -5 11 -25 65 -45 120 l-36 100 -47 3 -46 3 0 -170z"/>
<path d="M26013 17449 c-39 -11 -63 -43 -63 -85 0 -43 25 -69 85 -89 62 -20
75 -31 75 -61 0 -42 -57 -57 -112 -28 -27 14 -32 14 -46 0 -21 -21 -2 -43 50
-57 59 -15 113 -3 143 33 51 61 25 118 -71 152 -62 22 -80 50 -54 82 15 17 63
19 91 3 16 -8 25 -7 41 8 20 18 20 18 -19 35 -42 19 -72 21 -120 7z"/>
<path d="M23833 17334 c-41 -21 -67 -74 -58 -121 13 -69 86 -108 159 -83 49
16 64 37 40 55 -16 11 -21 11 -35 -1 -22 -20 -73 -17 -92 4 -10 10 -17 22 -17
25 0 4 38 7 85 7 84 0 85 0 85 25 0 83 -86 129 -167 89z"/>
<path d="M24360 17235 l0 -115 25 0 c24 0 25 2 25 68 0 77 17 112 56 112 19 0
24 5 24 26 0 23 -3 25 -27 20 -16 -4 -34 -14 -40 -23 -12 -15 -13 -15 -13 5 0
17 -6 22 -25 22 l-25 0 0 -115z"/>
<path d="M24693 17334 c-41 -21 -67 -74 -58 -121 13 -69 86 -108 159 -83 49
16 64 37 40 55 -16 11 -21 11 -35 -1 -22 -20 -73 -17 -92 4 -10 10 -17 22 -17
25 0 4 38 7 85 7 84 0 85 0 85 25 0 83 -86 129 -167 89z"/>
<path d="M27948 17954 c-59 -31 -58 -20 -58 -649 0 -632 -1 -618 60 -650 26
-13 338 -15 2754 -15 l2724 0 31 26 c17 14 35 42 41 62 15 55 12 1117 -3 1162
-7 19 -27 44 -46 57 l-34 23 -2721 0 c-2387 -1 -2724 -3 -2748 -16z m5461 -7
c19 -7 44 -25 55 -40 21 -28 21 -38 24 -595 2 -555 2 -568 -18 -600 -41 -67
181 -62 -2775 -62 -2900 0 -2731 -3 -2769 51 -14 21 -16 84 -16 605 0 572 0
582 21 608 11 14 35 30 52 35 51 15 5384 13 5426 -2z"/>
<path d="M31780 17300 l0 -180 25 0 25 0 0 180 0 180 -25 0 -25 0 0 -180z"/>
<path d="M30660 17295 l0 -175 25 0 c24 0 25 2 25 68 0 76 17 112 54 112 37 0
46 -19 46 -102 l0 -78 31 0 31 0 -4 91 c-3 85 -5 92 -31 115 -34 29 -66 31
-101 3 l-26 -20 0 80 c0 80 0 81 -25 81 l-25 0 0 -175z"/>
<path d="M31380 17395 l0 -75 -35 17 c-29 14 -41 15 -75 4 -49 -15 -75 -51
-75 -106 0 -55 26 -91 76 -107 37 -11 46 -10 80 9 38 21 39 21 39 2 0 -14 7
-19 25 -19 l25 0 0 175 0 175 -30 0 -30 0 0 -75z"/>
<path d="M29100 17291 l0 -171 30 0 30 0 0 70 0 70 33 0 c51 0 105 19 122 43
24 35 19 99 -10 127 -22 21 -38 24 -115 28 l-90 4 0 -171z"/>
<path d="M30213 17449 c-39 -11 -63 -43 -63 -85 0 -43 25 -69 85 -89 62 -20
75 -31 75 -61 0 -42 -57 -57 -112 -28 -27 14 -32 14 -46 0 -21 -21 -2 -43 50
-57 59 -15 113 -3 143 33 51 61 25 118 -71 152 -62 22 -80 50 -54 82 15 17 63
19 91 3 16 -8 25 -7 41 8 20 18 20 18 -19 35 -42 19 -72 21 -120 7z"/>
<path d="M29890 17380 c0 -23 -4 -30 -20 -30 -15 0 -20 -7 -20 -25 0 -18 5
-25 20 -25 18 0 20 -7 20 -65 0 -57 3 -69 25 -91 32 -32 78 -30 83 3 2 16 -3
22 -20 25 -21 3 -23 9 -26 66 -3 61 -2 62 23 62 20 0 25 5 25 25 0 20 -5 25
-25 25 -21 0 -25 5 -25 30 0 27 -3 30 -30 30 -27 0 -30 -3 -30 -30z"/>
<path d="M29444 17343 c-12 -2 -34 -18 -50 -34 -36 -38 -41 -104 -9 -139 23
-26 74 -50 106 -50 60 0 119 57 119 115 0 79 -72 127 -166 108z"/>
<path d="M29682 17340 c-30 -13 -49 -56 -36 -78 6 -9 33 -24 60 -33 36 -11 49
-21 49 -35 0 -24 -38 -31 -71 -13 -19 10 -26 9 -39 -1 -14 -12 -14 -15 1 -31
38 -42 139 -33 162 15 19 38 -1 66 -64 85 -30 10 -49 22 -49 31 0 19 51 26 71
9 12 -10 18 -9 32 4 15 16 15 18 1 33 -20 19 -86 27 -117 14z"/>
<path d="M30495 17343 c-32 -8 -74 -54 -81 -87 -17 -92 79 -160 171 -122 37
16 38 17 20 36 -13 14 -22 17 -29 10 -17 -17 -65 -11 -86 10 -53 53 12 136 79
100 14 -7 23 -5 36 10 17 19 17 20 -18 35 -37 15 -55 17 -92 8z"/>
<path d="M30983 17334 c-41 -21 -67 -74 -58 -121 13 -69 86 -108 159 -83 49
16 64 37 40 55 -16 11 -21 11 -35 -1 -22 -20 -73 -17 -92 4 -10 10 -17 22 -17
25 0 4 38 7 85 7 84 0 85 0 85 25 0 83 -86 129 -167 89z"/>
<path d="M31502 17259 c4 -85 6 -94 32 -115 33 -29 65 -30 100 -3 l26 20 0
-20 c0 -16 6 -21 25 -21 l25 0 0 115 0 115 -25 0 c-24 0 -25 -2 -25 -68 0 -76
-17 -112 -54 -112 -37 0 -46 19 -46 102 l0 78 -31 0 -31 0 4 -91z"/>
<path d="M31953 17334 c-41 -21 -67 -74 -58 -121 13 -69 86 -108 159 -83 49
16 64 37 40 55 -16 11 -21 11 -35 -1 -22 -20 -73 -17 -92 4 -10 10 -17 22 -17
25 0 4 38 7 85 7 84 0 85 0 85 25 0 83 -86 129 -167 89z"/>
<path d="M32180 17235 l0 -115 25 0 c24 0 25 2 25 68 0 77 17 112 56 112 19 0
24 5 24 26 0 23 -3 25 -27 20 -16 -4 -34 -14 -40 -23 -12 -15 -13 -15 -13 5 0
17 -6 22 -25 22 l-25 0 0 -115z"/>
<path d="M34148 17954 c-59 -31 -58 -20 -58 -649 0 -632 -1 -618 60 -650 26
-13 423 -15 3554 -15 l3524 0 31 26 c17 14 35 42 41 62 15 55 12 1117 -3 1162
-7 19 -27 44 -46 57 l-34 23 -3521 0 c-3095 -1 -3524 -3 -3548 -16z m7061 -7
c19 -7 44 -25 55 -40 21 -28 21 -38 24 -595 2 -555 2 -568 -18 -600 -41 -67
261 -62 -3575 -62 -3766 0 -3530 -3 -3569 51 -14 21 -16 84 -16 605 0 572 0
582 21 608 11 14 35 30 52 35 51 15 6984 13 7026 -2z"/>
<path d="M36933 17480 c-29 -12 -43 -40 -43 -89 0 -37 -2 -41 -25 -41 -20 0
-25 -5 -25 -25 0 -20 5 -25 25 -25 25 0 25 -1 25 -90 0 -89 0 -90 25 -90 25 0
25 1 25 90 0 89 0 90 25 90 20 0 25 5 25 25 0 20 -5 25 -25 25 -22 0 -25 4
-25 33 0 37 15 57 42 57 13 0 18 8 18 25 0 27 -24 32 -67 15z"/>
<path d="M36010 17295 l0 -175 25 0 c19 0 25 5 25 22 0 21 0 21 21 2 14 -13
36 -19 66 -19 38 0 49 5 74 33 23 25 29 42 29 77 0 35 -6 52 -29 77 -25 28
-36 33 -74 33 -30 0 -52 -6 -66 -19 l-21 -19 0 81 c0 81 0 82 -25 82 l-25 0 0
-175z"/>
<path d="M35370 17290 l0 -172 88 4 c102 5 156 26 189 77 32 47 32 135 0 181
-37 56 -79 74 -184 78 l-93 4 0 -172z m211 82 c23 -26 29 -42 29 -80 0 -79
-48 -122 -135 -122 l-45 0 0 121 0 121 61 -4 c54 -4 66 -9 90 -36z"/>
<path d="M37140 17291 l0 -171 25 0 25 0 0 137 c0 75 3 134 6 131 3 -4 27 -64
54 -135 37 -100 52 -129 68 -131 20 -3 35 28 98 206 10 28 22 52 26 52 5 0 8
-58 8 -130 l0 -130 25 0 25 0 0 170 0 170 -44 0 c-50 0 -39 16 -105 -165 -24
-64 -31 -76 -37 -60 -5 11 -25 65 -45 120 l-36 100 -47 3 -46 3 0 -170z"/>
<path d="M39920 17380 c0 -23 -4 -30 -20 -30 -15 0 -20 -7 -20 -25 0 -18 5
-25 20 -25 18 0 20 -7 20 -65 0 -57 3 -69 25 -91 32 -32 78 -30 83 3 2 16 -3
22 -20 25 -21 3 -23 9 -26 66 -3 61 -2 62 23 62 20 0 25 5 25 25 0 20 -5 25
-25 25 -21 0 -25 5 -25 30 0 27 -3 30 -30 30 -27 0 -30 -3 -30 -30z"/>
<path d="M35773 17334 c-41 -21 -67 -74 -58 -121 13 -69 86 -108 159 -83 49
16 64 37 40 55 -16 11 -21 11 -35 -1 -22 -20 -73 -17 -92 4 -10 10 -17 22 -17
25 0 4 38 7 85 7 84 0 85 0 85 25 0 83 -86 129 -167 89z"/>
<path d="M36310 17235 l0 -115 25 0 c24 0 25 2 25 68 0 77 17 112 56 112 19 0
24 5 24 26 0 23 -3 25 -27 20 -16 -4 -34 -14 -40 -23 -12 -15 -13 -15 -13 5 0
17 -6 22 -25 22 l-25 0 0 -115z"/>
<path d="M36643 17334 c-41 -21 -67 -74 -58 -121 13 -69 86 -108 159 -83 49
16 64 37 40 55 -16 11 -21 11 -35 -1 -22 -20 -73 -17 -92 4 -10 10 -17 22 -17
25 0 4 38 7 85 7 84 0 85 0 85 25 0 83 -86 129 -167 89z"/>
<path d="M37612 17335 c-37 -16 -42 -53 -7 -47 11 2 35 6 53 9 30 5 62 -9 62
-27 0 -4 -23 -11 -52 -14 -78 -11 -108 -30 -108 -72 0 -27 28 -52 69 -60 25
-5 39 -2 62 15 29 21 29 21 29 1 0 -15 7 -20 25 -20 25 0 25 1 25 84 0 74 -3
88 -23 111 -28 33 -88 42 -135 20z"/>
<path d="M37840 17235 l0 -115 25 0 c24 0 25 2 25 73 0 81 16 117 54 117 38 0
46 -19 46 -107 0 -82 0 -83 25 -83 25 0 25 0 25 94 0 90 -1 96 -26 115 -31 25
-58 26 -96 7 -24 -13 -28 -13 -28 0 0 8 -10 14 -25 14 l-25 0 0 -115z"/>
<path d="M38152 17335 c-37 -16 -42 -53 -7 -47 11 2 35 6 53 9 30 5 62 -9 62
-27 0 -4 -23 -11 -52 -14 -78 -11 -108 -30 -108 -72 0 -27 28 -52 69 -60 25
-5 39 -2 62 15 29 21 29 21 29 1 0 -15 7 -20 25 -20 25 0 25 1 25 84 0 74 -3
88 -23 111 -28 33 -88 42 -135 20z"/>
<path d="M38422 17335 c-64 -28 -79 -129 -27 -180 31 -32 85 -41 124 -22 l31
15 0 -29 c0 -60 -75 -91 -128 -53 -22 15 -24 15 -37 -2 -8 -11 -15 -22 -15
-25 0 -14 68 -34 117 -33 97 0 123 49 123 232 l0 112 -25 0 c-16 0 -25 -6 -25
-15 0 -18 -1 -18 -36 0 -36 18 -59 18 -102 0z m113 -45 c40 -44 10 -120 -47
-120 -37 0 -68 32 -68 70 0 61 76 93 115 50z"/>
<path d="M38723 17334 c-41 -21 -67 -74 -58 -121 13 -69 86 -108 159 -83 49
16 64 37 40 55 -16 11 -21 11 -35 -1 -22 -20 -73 -17 -92 4 -10 10 -17 22 -17
25 0 4 38 7 85 7 84 0 85 0 85 25 0 83 -86 129 -167 89z"/>
<path d="M38950 17235 l0 -115 25 0 c24 0 25 2 25 73 0 82 16 117 55 117 34 0
45 -27 45 -114 0 -74 1 -76 25 -76 24 0 25 2 25 73 0 82 16 117 55 117 34 0
45 -27 45 -114 0 -74 1 -76 25 -76 25 0 25 1 25 90 0 83 -2 93 -25 115 -28 29
-63 32 -106 10 -27 -14 -32 -14 -51 0 -28 19 -55 19 -90 1 -24 -13 -28 -13
-28 0 0 8 -10 14 -25 14 l-25 0 0 -115z"/>
<path d="M39413 17334 c-41 -21 -67 -74 -58 -121 13 -69 86 -108 159 -83 49
16 64 37 40 55 -16 11 -21 11 -35 -1 -22 -20 -73 -17 -92 4 -10 10 -17 22 -17
25 0 4 38 7 85 7 84 0 85 0 85 25 0 83 -86 129 -167 89z"/>
<path d="M39640 17235 l0 -115 25 0 c24 0 25 2 25 73 0 81 16 117 54 117 38 0
46 -19 46 -107 0 -82 0 -83 25 -83 25 0 25 0 25 94 0 90 -1 96 -26 115 -31 25
-58 26 -96 7 -24 -13 -28 -13 -28 0 0 8 -10 14 -25 14 l-25 0 0 -115z"/>
<path d="M18387 16199 c-54 -133 -97 -242 -95 -244 2 -1 41 19 88 46 47 27 88
49 93 49 4 0 7 -497 7 -1105 l0 -1105 -1595 0 c-877 0 -1595 3 -1595 8 0 4 22
45 49 92 27 47 47 87 46 88 -2 2 -112 -40 -244 -94 -132 -54 -238 -100 -235
-103 8 -8 478 -200 482 -197 1 2 -20 42 -48 89 -27 47 -50 88 -50 91 0 3 5041
7 11203 8 l11202 3 3 1113 c1 611 5 1112 10 1112 4 0 45 -23 91 -50 47 -27 86
-48 87 -47 4 4 -186 470 -195 479 -3 4 -50 -101 -104 -233 -54 -133 -97 -242
-95 -244 2 -1 41 19 88 46 47 27 88 49 93 49 4 0 7 -497 7 -1105 l0 -1105
-3490 0 -3490 0 0 1105 c0 608 3 1105 8 1105 4 0 45 -23 91 -50 47 -27 86 -48
87 -47 4 4 -186 470 -195 479 -3 4 -50 -101 -104 -233 -54 -133 -97 -242 -95
-244 2 -1 41 19 88 46 47 27 88 49 93 49 4 0 7 -497 7 -1105 l0 -1105 -2940 0
-2940 0 0 1105 c0 608 3 1105 8 1105 4 0 45 -22 92 -49 47 -27 86 -48 88 -46
2 2 -41 111 -94 244 -54 132 -101 238 -105 233 -6 -6 -114 -267 -180 -434
l-19 -48 30 15 c16 8 55 31 87 50 32 19 61 35 66 35 4 0 7 -497 7 -1105 l0
-1105 -3140 0 -3140 0 0 1105 c0 608 3 1105 8 1105 4 0 45 -23 91 -50 47 -27
86 -48 87 -47 4 4 -186 470 -195 479 -3 4 -50 -101 -104 -233z"/>
<path d="M6770 16397 c-19 -7 -44 -27 -57 -46 l-23 -34 0 -2024 c0 -1857 1
-2027 16 -2053 9 -15 29 -35 44 -44 26 -15 337 -16 3945 -16 3481 0 3919 2
3945 15 65 33 60 -127 60 2104 l0 2029 -26 31 c-14 17 -42 35 -62 41 -57 15
-7796 13 -7842 -3z m7849 -20 c13 -6 34 -25 45 -40 l21 -28 3 -1997 c2 -1394
0 -2008 -8 -2034 -6 -20 -22 -46 -37 -57 l-26 -21 -3913 0 c-2936 0 -3919 3
-3938 12 -14 6 -34 23 -43 37 -17 25 -18 134 -21 2022 -2 1584 0 2005 10 2035
8 24 26 47 47 61 l34 23 3901 0 c3076 0 3906 -3 3925 -13z"/>
<path d="M10600 15853 c0 -5 25 -83 56 -176 l56 -167 281 2 282 3 57 165 c32
91 58 168 58 173 0 4 -178 7 -395 7 -217 0 -395 -3 -395 -7z"/>
<path d="M10550 15562 l0 -232 65 0 65 0 0 -65 0 -65 -65 0 -65 0 0 -69 0 -70
38 -3 c36 -3 37 -4 37 -43 0 -39 -1 -40 -37 -43 -38 -3 -38 -4 -38 -47 0 -82
-39 -75 446 -75 l434 0 -1 463 -1 462 -42 -125 c-49 -144 -69 -185 -91 -194
-9 -3 -146 -6 -305 -6 -259 0 -290 2 -309 18 -12 10 -40 75 -72 167 -28 83
-53 152 -55 154 -2 2 -4 -100 -4 -227z"/>
<path d="M10397 15404 c-4 -4 -7 -54 -7 -110 l0 -103 -57 -3 -58 -3 -3 -57 -3
-58 61 0 60 0 0 60 0 59 68 3 67 3 0 60 c0 54 -2 60 -22 63 -18 3 -22 11 -25
45 -3 40 -5 42 -38 45 -20 2 -39 0 -43 -4z"/>
<path d="M10330 14160 c0 -89 -6 -104 -30 -75 -19 23 -72 28 -113 11 -104 -43
-104 -219 0 -262 43 -19 96 -11 124 17 19 19 19 19 19 -1 0 -16 7 -20 30 -20
l30 0 0 210 0 210 -30 0 -30 0 0 -90z m-45 -116 c21 -8 45 -56 45 -89 0 -35
-42 -75 -78 -75 -49 0 -77 31 -77 85 0 37 5 51 24 66 24 19 56 24 86 13z"/>
<path d="M10595 14198 c-7 -18 -43 -103 -80 -188 -37 -85 -69 -161 -72 -167
-4 -9 6 -13 31 -13 34 0 38 3 56 45 l19 45 89 0 88 0 15 -42 c15 -40 18 -43
57 -46 l41 -3 -23 53 c-13 29 -51 119 -86 201 -60 142 -63 147 -91 147 -24 0
-33 -6 -44 -32z"/>
<path d="M10880 14030 l0 -200 30 0 30 0 0 79 0 78 63 5 c111 9 156 52 144
139 -10 75 -55 99 -189 99 l-78 0 0 -200z m182 123 c25 -23 23 -68 -4 -87 -13
-9 -43 -16 -70 -16 l-48 0 0 60 0 60 52 0 c34 0 58 -6 70 -17z"/>
<path d="M11210 14030 l0 -200 30 0 30 0 0 200 0 200 -30 0 -30 0 0 -200z"/>
<path d="M9255 13581 c-36 -15 -55 -47 -62 -100 -5 -45 -8 -51 -29 -51 -20 0
-24 -5 -24 -30 0 -25 4 -30 25 -30 l25 0 0 -105 0 -105 35 0 35 0 0 105 0 105
30 0 c27 0 30 3 30 30 0 27 -3 30 -30 30 -28 0 -30 2 -30 38 0 43 14 62 47 62
19 0 23 5 23 30 0 26 -3 30 -27 29 -16 0 -37 -4 -48 -8z"/>
<path d="M8160 13370 l0 -210 30 0 c23 0 30 4 30 20 0 18 2 18 36 -5 43 -29
73 -31 121 -8 40 19 72 77 73 131 0 49 -33 107 -74 126 -45 21 -74 20 -113 -4
l-33 -20 0 90 0 90 -35 0 -35 0 0 -210z m197 -12 c31 -29 32 -92 1 -125 -48
-51 -130 -13 -130 62 0 74 77 112 129 63z"/>
<path d="M11830 13370 l0 -210 35 0 35 0 0 210 0 210 -35 0 -35 0 0 -210z"/>
<path d="M12900 13490 c0 -89 -6 -104 -30 -75 -35 42 -135 21 -170 -37 -45
-74 -16 -184 57 -214 43 -19 96 -11 124 17 19 19 19 19 19 -1 0 -16 7 -20 30
-20 l30 0 0 210 0 210 -30 0 -30 0 0 -90z m-45 -116 c21 -8 45 -56 45 -89 0
-35 -42 -75 -78 -75 -49 0 -77 31 -77 85 0 37 5 51 24 66 24 19 56 24 86 13z"/>
<path d="M7440 13359 l0 -202 103 5 c102 5 146 18 191 57 32 28 56 88 56 141
0 137 -87 200 -275 200 l-75 0 0 -201z m210 123 c64 -32 89 -122 52 -191 -25
-47 -74 -71 -144 -71 l-58 0 0 140 0 140 58 0 c34 0 71 -7 92 -18z"/>
<path d="M9500 13359 l0 -202 103 5 c102 5 146 18 191 57 32 28 56 88 56 141
0 137 -87 200 -275 200 l-75 0 0 -201z m210 123 c64 -32 89 -122 52 -191 -25
-47 -74 -71 -144 -71 l-58 0 0 140 0 140 58 0 c34 0 71 -7 92 -18z"/>
<path d="M13285 13528 c-7 -18 -43 -103 -80 -188 -37 -85 -69 -161 -72 -167
-4 -9 6 -13 31 -13 34 0 38 3 56 45 l19 45 89 0 88 0 15 -42 c15 -40 18 -43
57 -46 l41 -3 -23 53 c-13 29 -51 119 -86 201 -60 142 -63 147 -91 147 -24 0
-33 -6 -44 -32z"/>
<path d="M13570 13360 l0 -200 30 0 30 0 0 79 0 78 63 5 c111 9 156 52 144
139 -10 75 -55 99 -189 99 l-78 0 0 -200z m182 123 c25 -23 23 -68 -4 -87 -13
-9 -43 -16 -70 -16 l-48 0 0 60 0 60 52 0 c34 0 58 -6 70 -17z"/>
<path d="M13900 13360 l0 -200 30 0 30 0 0 200 0 200 -30 0 -30 0 0 -200z"/>
<path d="M11140 13470 c0 -36 -2 -40 -25 -40 -21 0 -25 -5 -25 -30 0 -25 4
-30 25 -30 25 0 25 -1 25 -83 0 -94 13 -122 60 -132 44 -10 70 2 70 31 0 18
-5 24 -23 24 -37 0 -47 19 -47 92 l0 68 35 0 c32 0 35 2 35 30 0 28 -3 30 -35
30 -34 0 -35 1 -35 40 0 38 -2 40 -30 40 -28 0 -30 -2 -30 -40z"/>
<path d="M7935 13433 c-32 -9 -65 -34 -81 -64 -22 -44 -18 -120 9 -160 41 -61
141 -75 201 -28 31 25 32 30 5 47 -18 11 -24 11 -38 -2 -27 -24 -78 -20 -106
9 -14 13 -25 29 -25 35 0 6 37 10 100 10 l100 0 0 35 c0 89 -73 141 -165 118z"/>
<path d="M8611 13414 c-30 -25 -31 -25 -31 -5 0 17 -6 21 -30 21 l-30 0 0
-135 0 -135 35 0 35 0 0 90 c0 100 15 130 65 130 21 0 25 5 25 30 0 39 -26 40
-69 4z"/>
<path d="M8945 13433 c-32 -9 -65 -34 -81 -64 -22 -44 -18 -120 9 -160 41 -61
141 -75 201 -28 31 25 32 30 5 47 -18 11 -24 11 -38 -2 -27 -24 -78 -20 -106
9 -14 13 -25 29 -25 35 0 6 37 10 100 10 l100 0 0 35 c0 89 -73 141 -165 118z"/>
<path d="M9995 13433 c-32 -9 -65 -34 -81 -64 -22 -44 -18 -120 9 -160 41 -61
141 -75 201 -28 31 25 32 30 5 47 -18 11 -24 11 -38 -2 -27 -24 -78 -20 -106
9 -14 13 -25 29 -25 35 0 6 37 10 100 10 l100 0 0 35 c0 89 -73 141 -165 118z"/>
<path d="M10293 13421 c-50 -23 -73 -62 -73 -126 0 -79 38 -126 113 -140 36
-7 102 8 113 26 3 6 -1 18 -11 29 -13 15 -21 16 -44 7 -44 -16 -80 -2 -97 39
-18 42 -5 98 26 114 25 13 63 13 77 -1 9 -9 18 -8 38 5 30 20 25 33 -21 52
-44 19 -71 17 -121 -5z"/>
<path d="M10575 13433 c-32 -9 -65 -34 -81 -64 -22 -44 -18 -120 9 -160 41
-61 141 -75 201 -28 31 25 32 30 5 47 -18 11 -24 11 -38 -2 -27 -24 -78 -20
-106 9 -14 13 -25 29 -25 35 0 6 37 10 100 10 l100 0 0 35 c0 89 -73 141 -165
118z"/>
<path d="M10903 13420 c-27 -16 -33 -17 -33 -5 0 10 -10 15 -30 15 l-30 0 0
-135 0 -135 35 0 35 0 0 98 c0 106 11 132 58 132 42 0 52 -24 52 -131 l0 -99
36 0 36 0 -4 111 c-3 111 -3 111 -36 140 -38 34 -74 37 -119 9z"/>
<path d="M11411 13414 c-30 -25 -31 -25 -31 -5 0 17 -6 21 -30 21 l-30 0 0
-135 0 -135 35 0 35 0 0 90 c0 100 15 130 65 130 21 0 25 5 25 30 0 39 -26 40
-69 4z"/>
<path d="M11563 13421 c-47 -22 -51 -30 -25 -54 15 -13 19 -14 36 -1 28 20 80
18 99 -4 10 -10 17 -21 17 -24 0 -3 -26 -9 -57 -13 -118 -15 -165 -72 -113
-138 36 -46 133 -45 160 2 8 13 9 12 10 -6 0 -19 6 -23 31 -23 l31 0 -4 110
c-3 101 -5 111 -28 135 -36 35 -102 42 -157 16z"/>
<path d="M12455 13433 c-32 -9 -65 -34 -81 -64 -22 -44 -18 -120 9 -160 41
-61 141 -75 201 -28 31 25 32 30 5 47 -18 11 -24 11 -38 -2 -27 -24 -78 -20
-106 9 -14 13 -25 29 -25 35 0 6 37 10 100 10 l100 0 0 35 c0 89 -73 141 -165
118z"/>
<path d="M8720 13295 l0 -135 35 0 35 0 0 135 0 135 -35 0 -35 0 0 -135z"/>
<path d="M11970 13295 l0 -135 35 0 35 0 0 135 0 135 -35 0 -35 0 0 -135z"/>
<path d="M12100 13400 l0 -30 66 0 66 0 -71 -78 c-51 -56 -71 -87 -71 -105 l0
-27 115 0 115 0 0 30 0 30 -77 0 -77 0 72 73 c59 60 72 78 72 105 l0 32 -105
0 -105 0 0 -30z"/>
<path d="M10597 11738 c-54 -132 -96 -242 -95 -243 2 -2 44 21 93 50 l90 53 3
-415 c1 -228 1 -599 0 -824 l-3 -409 -88 51 c-48 28 -90 50 -92 48 -4 -5 189
-479 195 -479 7 0 200 473 195 478 -1 2 -43 -19 -92 -47 l-88 -51 -3 416 c-1
228 -1 599 0 824 l3 408 94 -54 c66 -38 91 -49 87 -37 -29 79 -192 473 -196
473 -3 0 -49 -109 -103 -242z"/>
<path d="M8752 9350 c-65 -40 -62 2 -62 -992 0 -856 1 -905 18 -937 10 -19 34
-43 53 -53 32 -17 82 -18 976 -18 l943 0 0 -235 0 -235 -2795 0 -2795 0 0
-265 0 -265 -1209 0 -1209 0 -30 -25 c-16 -13 -35 -37 -41 -52 -8 -21 -11
-187 -9 -606 l3 -579 37 -34 38 -34 1210 0 1210 0 0 -125 0 -125 -1210 0
-1210 0 -38 -34 -37 -34 -3 -579 c-2 -419 1 -585 9 -606 6 -15 25 -39 41 -52
l30 -25 2429 0 2429 0 38 34 37 34 3 582 c3 638 4 627 -57 663 -27 16 -116 17
-1235 17 l-1206 0 0 125 0 125 1206 0 c1119 0 1208 1 1235 17 60 36 59 27 59
648 0 615 1 599 -56 644 l-27 21 -1208 0 -1209 0 0 255 0 255 2785 0 2785 0 0
-255 0 -255 -1204 0 -1204 0 -30 -25 c-16 -13 -35 -37 -41 -52 -8 -21 -11
-187 -9 -606 l3 -579 37 -34 38 -34 1205 0 1205 0 0 -125 0 -125 -1205 0
-1205 0 -38 -34 -37 -34 -3 -579 c-2 -419 1 -585 9 -606 6 -15 25 -39 41 -52
l30 -25 2429 0 2429 0 38 34 37 34 3 582 c2 504 0 585 -13 613 -31 66 61 62
-1275 67 l-1215 5 0 120 0 120 1215 5 c1336 5 1244 1 1275 66 13 27 15 116 15
599 0 606 1 594 -50 640 -22 20 -40 20 -1239 25 l-1216 5 -3 253 -2 252 2797
-2 2798 -3 0 -250 0 -250 -1217 -5 -1216 -5 -25 -23 c-14 -13 -30 -36 -36 -51
-8 -18 -11 -199 -9 -603 l3 -578 33 -32 32 -33 1218 -5 1217 -5 0 -120 0 -120
-1217 -5 -1218 -5 -32 -33 -33 -32 -3 -578 c-2 -418 1 -584 9 -605 6 -15 25
-39 41 -52 l30 -25 2429 0 2429 0 38 34 37 34 3 582 c2 504 0 585 -13 613 -31
66 61 62 -1270 67 l-1210 5 0 120 0 120 1210 5 c1330 5 1239 1 1270 66 13 27
15 116 15 599 0 606 1 594 -50 640 -22 20 -40 20 -1234 25 l-1211 5 -3 263 -2
262 -2805 0 -2805 0 0 235 0 235 953 0 c886 0 954 1 987 18 74 36 70 -20 70
995 0 1002 4 947 -63 987 -31 20 -65 20 -1947 20 -1903 0 -1915 0 -1948 -20z
m3905 -33 l28 -27 3 -914 c1 -586 -1 -923 -8 -940 -5 -14 -24 -35 -42 -46 -33
-20 -52 -20 -1936 -20 -2092 0 -1944 -5 -1977 60 -13 26 -15 139 -13 944 3
898 3 914 23 936 11 12 29 26 40 31 11 4 883 7 1937 6 l1918 -2 27 -28z
m-5155 -2987 c20 -6 48 -24 62 -41 l26 -31 0 -569 c0 -630 2 -612 -64 -643
-31 -15 -233 -16 -2426 -16 -2644 0 -2438 -5 -2474 63 -16 29 -17 84 -14 604
l3 571 24 26 c14 15 39 30 55 35 45 13 4761 14 4808 1z m5600 0 c20 -6 48 -24
62 -41 l26 -31 0 -569 c0 -630 2 -612 -64 -643 -31 -15 -233 -16 -2426 -16
-2644 0 -2438 -5 -2474 63 -16 29 -17 84 -14 604 l3 571 24 26 c14 15 39 30
55 35 45 13 4761 14 4808 1z m5600 0 c20 -6 48 -24 62 -41 l26 -31 0 -569 c0
-630 2 -612 -64 -643 -31 -15 -233 -16 -2426 -16 -2644 0 -2438 -5 -2474 63
-16 29 -17 84 -14 604 l3 571 24 26 c14 15 39 30 55 35 45 13 4761 14 4808 1z
m-11176 -1586 c66 -31 64 -13 64 -643 l0 -569 -26 -31 c-14 -17 -42 -35 -62
-41 -50 -14 -4753 -14 -4803 0 -19 6 -46 22 -60 36 l-24 26 -3 571 c-3 520 -2
575 14 604 35 68 -171 63 2472 63 2195 0 2397 -1 2428 -16z m5600 0 c66 -31
64 -13 64 -643 l0 -569 -26 -31 c-14 -17 -42 -35 -62 -41 -50 -14 -4753 -14
-4803 0 -19 6 -46 22 -60 36 l-24 26 -3 571 c-3 520 -2 575 14 604 35 68 -171
63 2472 63 2195 0 2397 -1 2428 -16z m5600 0 c66 -31 64 -13 64 -643 l0 -569
-26 -31 c-14 -17 -42 -35 -62 -41 -50 -14 -4753 -14 -4803 0 -19 6 -46 22 -60
36 l-24 26 -3 571 c-3 520 -2 575 14 604 35 68 -171 63 2472 63 2195 0 2397
-1 2428 -16z"/>
<path d="M9680 8578 c-88 -25 -140 -99 -140 -198 0 -72 24 -127 72 -163 71
-54 178 -58 251 -11 20 13 37 26 37 28 0 2 -11 11 -25 20 -25 16 -28 16 -59
-3 -41 -26 -98 -27 -137 -4 -35 21 -69 86 -69 131 0 113 113 187 204 134 l34
-20 22 23 22 23 -26 17 c-49 32 -122 41 -186 23z"/>
<path d="M11666 8580 c-63 -19 -96 -78 -77 -139 12 -42 35 -61 96 -81 64 -20
85 -37 85 -69 0 -42 -31 -65 -81 -58 -22 3 -48 12 -58 21 -16 15 -19 14 -39
-7 -21 -23 -22 -24 -4 -40 10 -9 40 -22 67 -28 102 -23 185 29 185 115 0 61
-26 90 -105 116 -84 28 -105 60 -65 100 24 24 76 26 106 5 19 -13 23 -12 43 9
25 26 18 36 -38 55 -39 13 -74 13 -115 1z"/>
<path d="M9970 8380 l0 -200 115 0 115 0 0 30 0 30 -85 0 -85 0 0 170 0 170
-30 0 -30 0 0 -200z"/>
<path d="M10270 8380 l0 -200 30 0 30 0 0 200 0 200 -30 0 -30 0 0 -200z"/>
<path d="M10450 8380 l0 -200 130 0 130 0 0 30 0 30 -100 0 -100 0 0 55 0 55
90 0 90 0 0 30 0 30 -90 0 -90 0 0 55 0 55 95 0 95 0 0 30 0 30 -125 0 -125 0
0 -200z"/>
<path d="M10810 8380 l0 -200 30 0 29 0 3 157 3 156 95 -156 94 -157 43 0 43
0 0 200 0 200 -35 0 -34 0 -3 -145 -3 -145 -90 145 -89 145 -43 0 -43 0 0
-200z"/>
<path d="M11210 8550 l0 -30 65 0 65 0 0 -170 0 -170 30 0 30 0 0 170 0 170
60 0 60 0 0 30 0 30 -155 0 -155 0 0 -30z"/>
<path d="M4958 5830 c-123 -37 -157 -194 -62 -281 131 -119 346 -3 303 164
-23 95 -135 149 -241 117z m122 -55 c35 -18 60 -62 60 -105 0 -69 -53 -120
-126 -120 -28 0 -44 8 -70 34 -30 30 -34 40 -34 86 0 46 4 56 34 86 39 39 86
45 136 19z"/>
<path d="M5323 5829 c-39 -12 -63 -43 -63 -84 0 -45 24 -71 83 -91 65 -21 77
-30 77 -60 0 -43 -60 -57 -111 -27 -28 17 -30 17 -51 -4 l-22 -22 45 -20 c99
-45 199 -6 199 79 0 46 -23 68 -99 95 -51 18 -56 23 -56 50 0 38 40 55 88 37
27 -10 34 -10 50 7 19 19 19 19 -1 30 -31 16 -102 22 -139 10z"/>
<path d="M9576 5683 c-38 -87 -71 -164 -73 -170 -4 -9 6 -13 29 -13 32 0 36 3
47 40 l12 40 75 0 76 0 15 -40 c14 -36 20 -40 50 -40 19 0 33 4 31 9 -1 4 -34
81 -72 170 -65 150 -71 161 -96 161 -25 0 -31 -11 -94 -157z"/>
<path d="M9900 5670 l0 -170 30 0 29 0 3 127 3 127 76 -124 75 -125 42 -3 42
-3 0 170 0 171 -30 0 -29 0 -3 -127 -3 -128 -78 128 -79 127 -39 0 -39 0 0
-170z"/>
<path d="M10290 5669 l0 -171 93 4 c101 4 143 20 179 69 46 61 40 160 -12 214
-38 40 -91 55 -189 55 l-71 0 0 -171z m191 98 c23 -15 37 -35 43 -60 23 -90
-31 -157 -125 -157 l-49 0 0 120 0 120 49 0 c33 0 58 -7 82 -23z"/>
<path d="M10670 5670 l0 -170 30 0 30 0 0 70 c0 66 1 70 23 70 17 0 30 -16 60
-70 35 -66 39 -70 73 -70 39 0 39 -1 -17 88 -16 25 -29 49 -29 52 0 4 11 12
24 19 70 38 56 149 -22 170 -20 6 -67 11 -104 11 l-68 0 0 -170z"/>
<path d="M11088 5830 c-123 -37 -157 -194 -62 -281 131 -119 346 -3 303 164
-23 95 -135 149 -241 117z m122 -55 c35 -18 60 -62 60 -105 0 -69 -53 -120
-126 -120 -28 0 -44 8 -70 34 -30 30 -34 40 -34 86 0 46 4 56 34 86 39 39 86
45 136 19z"/>
<path d="M11410 5670 l0 -170 30 0 30 0 0 170 0 170 -30 0 -30 0 0 -170z"/>
<path d="M11560 5669 l0 -171 93 4 c101 4 143 20 179 69 46 61 40 160 -12 214
-38 40 -91 55 -189 55 l-71 0 0 -171z m191 98 c23 -15 37 -35 43 -60 23 -90
-31 -157 -125 -157 l-49 0 0 120 0 120 49 0 c33 0 58 -7 82 -23z"/>
<path d="M15160 5669 l0 -171 93 4 c101 4 143 20 179 69 46 61 40 160 -12 214
-38 40 -91 55 -189 55 l-71 0 0 -171z m191 98 c23 -15 37 -35 43 -60 23 -90
-31 -157 -125 -157 l-49 0 0 120 0 120 49 0 c33 0 58 -7 82 -23z"/>
<path d="M15540 5670 l0 -170 115 0 115 0 0 25 c0 25 -1 25 -85 25 l-85 0 0
50 0 50 75 0 c73 0 75 1 75 25 0 24 -2 25 -75 25 l-75 0 0 45 0 45 80 0 c79 0
80 0 80 25 l0 25 -110 0 -110 0 0 -170z"/>
<path d="M15903 5829 c-39 -12 -63 -43 -63 -84 0 -45 24 -71 83 -91 65 -21 77
-30 77 -60 0 -43 -60 -57 -111 -27 -28 17 -30 17 -51 -4 l-22 -22 45 -20 c99
-45 199 -6 199 79 0 46 -23 68 -99 95 -51 18 -56 23 -56 50 0 38 40 55 88 37
27 -10 34 -10 50 7 19 19 19 19 -1 30 -31 16 -102 22 -139 10z"/>
<path d="M16140 5670 l0 -170 30 0 29 0 3 82 3 82 70 -81 c67 -78 72 -82 114
-82 l43 -1 -83 91 -82 90 79 80 79 79 -40 0 c-36 0 -47 -7 -112 -72 l-73 -72
0 72 0 72 -30 0 -30 0 0 -170z"/>
<path d="M16470 5815 c0 -24 3 -25 55 -25 l55 0 0 -145 0 -145 30 0 30 0 0
145 0 145 50 0 c47 0 50 2 50 25 l0 25 -135 0 -135 0 0 -25z"/>
<path d="M16888 5830 c-123 -37 -157 -194 -62 -281 131 -119 346 -3 303 164
-23 95 -135 149 -241 117z m122 -55 c35 -18 60 -62 60 -105 0 -69 -53 -120
-126 -120 -28 0 -44 8 -70 34 -30 30 -34 40 -34 86 0 46 4 56 34 86 39 39 86
45 136 19z"/>
<path d="M17210 5671 l0 -171 30 0 30 0 0 69 0 68 56 6 c30 3 67 13 80 22 50
33 54 102 8 146 -21 19 -37 23 -114 27 l-90 4 0 -171z"/>
<path d="M4488 4250 c-123 -37 -157 -194 -62 -281 131 -119 346 -3 303 164
-23 95 -135 149 -241 117z m122 -55 c35 -18 60 -62 60 -105 0 -69 -53 -120
-126 -120 -28 0 -44 8 -70 34 -30 30 -34 40 -34 86 0 46 4 56 34 86 39 39 86
45 136 19z"/>
<path d="M4853 4249 c-39 -12 -63 -43 -63 -84 0 -45 24 -71 83 -91 65 -21 77
-30 77 -60 0 -43 -60 -57 -111 -27 -28 17 -30 17 -51 -4 l-22 -22 45 -20 c99
-45 199 -6 199 79 0 46 -23 68 -99 95 -51 18 -56 23 -56 50 0 38 40 55 88 37
27 -10 34 -10 50 7 19 19 19 19 -1 30 -31 16 -102 22 -139 10z"/>
<path d="M5266 4103 c-38 -87 -71 -164 -73 -170 -4 -9 6 -13 29 -13 32 0 36 3
47 40 l12 40 75 0 76 0 15 -40 c14 -36 20 -40 50 -40 19 0 33 4 31 9 -1 4 -34
81 -72 170 -65 150 -71 161 -96 161 -25 0 -31 -11 -94 -157z"/>
<path d="M5590 4091 l0 -171 30 0 30 0 0 69 0 68 56 6 c30 3 67 13 80 22 50
33 54 102 8 146 -21 19 -37 23 -114 27 l-90 4 0 -171z"/>
<path d="M5890 4090 l0 -170 30 0 30 0 0 170 0 170 -30 0 -30 0 0 -170z"/>
<path d="M9106 4103 c-38 -87 -71 -164 -73 -170 -4 -9 6 -13 29 -13 32 0 36 3
47 40 l12 40 75 0 76 0 15 -40 c14 -36 20 -40 50 -40 19 0 33 4 31 9 -1 4 -34
81 -72 170 -65 150 -71 161 -96 161 -25 0 -31 -11 -94 -157z"/>
<path d="M9430 4090 l0 -170 30 0 29 0 3 127 3 127 76 -124 75 -125 42 -3 42
-3 0 170 0 171 -30 0 -29 0 -3 -127 -3 -128 -78 128 -79 127 -39 0 -39 0 0
-170z"/>
<path d="M9820 4089 l0 -171 93 4 c101 4 143 20 179 69 46 61 40 160 -12 214
-38 40 -91 55 -189 55 l-71 0 0 -171z m191 98 c23 -15 37 -35 43 -60 23 -90
-31 -157 -125 -157 l-49 0 0 120 0 120 49 0 c33 0 58 -7 82 -23z"/>
<path d="M10200 4090 l0 -170 30 0 30 0 0 70 c0 66 1 70 23 70 17 0 30 -16 60
-70 35 -66 39 -70 73 -70 39 0 39 -1 -17 88 -16 25 -29 49 -29 52 0 4 11 12
24 19 70 38 56 149 -22 170 -20 6 -67 11 -104 11 l-68 0 0 -170z"/>
<path d="M10618 4250 c-123 -37 -157 -194 -62 -281 131 -119 346 -3 303 164
-23 95 -135 149 -241 117z m122 -55 c35 -18 60 -62 60 -105 0 -69 -53 -120
-126 -120 -28 0 -44 8 -70 34 -30 30 -34 40 -34 86 0 46 4 56 34 86 39 39 86
45 136 19z"/>
<path d="M10940 4090 l0 -170 30 0 30 0 0 170 0 170 -30 0 -30 0 0 -170z"/>
<path d="M11090 4089 l0 -171 93 4 c101 4 143 20 179 69 46 61 40 160 -12 214
-38 40 -91 55 -189 55 l-71 0 0 -171z m191 98 c23 -15 37 -35 43 -60 23 -90
-31 -157 -125 -157 l-49 0 0 120 0 120 49 0 c33 0 58 -7 82 -23z"/>
<path d="M11646 4103 c-38 -87 -71 -164 -73 -170 -4 -9 6 -13 29 -13 32 0 36
3 47 40 l12 40 75 0 76 0 15 -40 c14 -36 20 -40 50 -40 19 0 33 4 31 9 -1 4
-34 81 -72 170 -65 150 -71 161 -96 161 -25 0 -31 -11 -94 -157z"/>
<path d="M11960 4091 l0 -171 30 0 30 0 0 69 0 68 56 6 c30 3 67 13 80 22 50
33 54 102 8 146 -21 19 -37 23 -114 27 l-90 4 0 -171z"/>
<path d="M12270 4090 l0 -170 30 0 30 0 0 170 0 170 -30 0 -30 0 0 -170z"/>
<path d="M14690 4089 l0 -171 93 4 c101 4 143 20 179 69 46 61 40 160 -12 214
-38 40 -91 55 -189 55 l-71 0 0 -171z m191 98 c23 -15 37 -35 43 -60 23 -90
-31 -157 -125 -157 l-49 0 0 120 0 120 49 0 c33 0 58 -7 82 -23z"/>
<path d="M15070 4090 l0 -170 115 0 115 0 0 25 c0 25 -1 25 -85 25 l-85 0 0
50 0 50 75 0 c73 0 75 1 75 25 0 24 -2 25 -75 25 l-75 0 0 45 0 45 80 0 c79 0
80 0 80 25 l0 25 -110 0 -110 0 0 -170z"/>
<path d="M15433 4249 c-39 -12 -63 -43 -63 -84 0 -45 24 -71 83 -91 65 -21 77
-30 77 -60 0 -43 -60 -57 -111 -27 -28 17 -30 17 -51 -4 l-22 -22 45 -20 c99
-45 199 -6 199 79 0 46 -23 68 -99 95 -51 18 -56 23 -56 50 0 38 40 55 88 37
27 -10 34 -10 50 7 19 19 19 19 -1 30 -31 16 -102 22 -139 10z"/>
<path d="M15670 4090 l0 -170 30 0 29 0 3 82 3 82 70 -81 c67 -78 72 -82 114
-82 l43 -1 -83 91 -82 90 79 80 79 79 -40 0 c-36 0 -47 -7 -112 -72 l-73 -72
0 72 0 72 -30 0 -30 0 0 -170z"/>
<path d="M15990 4235 c0 -24 3 -25 55 -25 l55 0 0 -145 0 -145 30 0 30 0 0
145 0 145 50 0 c47 0 50 2 50 25 l0 25 -135 0 -135 0 0 -25z"/>
<path d="M16408 4250 c-123 -37 -157 -194 -62 -281 131 -119 346 -3 303 164
-23 95 -135 149 -241 117z m122 -55 c35 -18 60 -62 60 -105 0 -69 -53 -120
-126 -120 -28 0 -44 8 -70 34 -30 30 -34 40 -34 86 0 46 4 56 34 86 39 39 86
45 136 19z"/>
<path d="M16740 4091 l0 -171 30 0 30 0 0 69 0 68 56 6 c30 3 67 13 80 22 50
33 54 102 8 146 -21 19 -37 23 -114 27 l-90 4 0 -171z"/>
<path d="M17216 4103 c-38 -87 -71 -164 -73 -170 -4 -9 6 -13 29 -13 32 0 36
3 47 40 l12 40 75 0 76 0 15 -40 c14 -36 20 -40 50 -40 19 0 33 4 31 9 -1 4
-34 81 -72 170 -65 150 -71 161 -96 161 -25 0 -31 -11 -94 -157z"/>
<path d="M17540 4091 l0 -171 30 0 30 0 0 69 0 68 56 6 c30 3 67 13 80 22 50
33 54 102 8 146 -21 19 -37 23 -114 27 l-90 4 0 -171z"/>
<path d="M17840 4090 l0 -170 30 0 30 0 0 170 0 170 -30 0 -30 0 0 -170z"/>
<path d="M3650 1797 c0 -4 146 -435 175 -519 l17 -48 459 0 460 0 14 33 c7 17
52 146 99 285 l85 252 -654 0 c-360 0 -655 -1 -655 -3z m689 -337 c10 -5 24
-22 30 -39 15 -35 4 -62 -34 -87 -21 -14 -30 -14 -55 -4 -55 23 -66 75 -25
115 25 26 54 31 84 15z"/>
<path d="M4940 1446 c-45 -135 -90 -256 -100 -269 -37 -47 -46 -48 -552 -45
l-477 3 -30 29 c-24 23 -43 67 -96 225 -36 108 -74 219 -85 246 l-19 50 -1
-372 0 -373 98 0 c63 0 102 -4 110 -12 8 -8 12 -47 12 -110 l0 -98 -110 0
-110 0 0 -120 0 -119 63 -3 62 -3 3 -62 3 -63 -66 0 -65 0 0 -93 c0 -59 4 -97
12 -105 9 -9 180 -12 709 -12 621 0 699 2 713 16 14 14 16 98 16 775 0 417 -2
759 -4 759 -2 0 -41 -110 -86 -244z m-1005 -801 l0 -70 -67 -3 -68 -3 0 76 0
76 68 -3 67 -3 0 -70z"/>
<path d="M2884 1427 c-3 -8 -4 -49 -2 -93 l3 -79 92 -3 92 -3 3 -87 3 -87 93
-3 92 -3 0 91 0 90 -95 0 -94 0 -3 93 -3 92 -88 3 c-67 2 -89 0 -93 -11z"/>
<path d="M9107 1376 c-21 -8 -47 -22 -58 -32 -30 -27 -49 -108 -49 -206 l0
-88 -60 0 -60 0 0 -45 0 -45 60 0 60 0 0 -230 0 -230 50 0 50 0 2 228 3 227
63 3 62 3 0 44 0 45 -60 0 -60 0 0 99 c0 127 12 146 92 146 l53 0 3 39 c2 24
-2 42 -10 47 -20 13 -98 10 -141 -5z"/>
<path d="M6900 935 l0 -435 50 0 50 0 0 36 0 36 35 -31 c35 -31 117 -61 165
-61 45 0 125 28 167 59 27 19 51 51 72 92 26 52 31 74 31 134 0 98 -23 159
-80 216 -94 94 -264 105 -352 24 -15 -14 -30 -25 -33 -25 -3 0 -5 88 -5 195
l0 195 -50 0 -50 0 0 -435z m374 2 c74 -42 109 -162 72 -250 -42 -103 -183
-140 -272 -72 -107 81 -95 255 21 326 43 27 129 25 179 -4z"/>
<path d="M11350 935 l0 -435 55 0 55 0 0 178 c0 199 7 226 71 270 27 19 43 23
82 19 98 -9 117 -58 117 -301 l0 -166 56 0 56 0 -4 203 c-3 181 -5 207 -25
249 -53 115 -218 144 -319 56 l-34 -30 0 196 0 196 -55 0 -55 0 0 -435z"/>
<path d="M5400 910 l0 -410 178 0 c238 0 310 21 414 118 195 182 150 534 -82
652 -71 36 -162 50 -342 50 l-168 0 0 -410z m453 261 c70 -43 112 -100 133
-182 31 -120 1 -224 -87 -303 -68 -61 -120 -77 -266 -83 l-123 -5 0 307 0 307
143 -4 c143 -3 143 -3 200 -37z"/>
<path d="M8045 1295 c-48 -48 -16 -125 51 -125 67 0 100 88 48 129 -35 28 -69
26 -99 -4z"/>
<path d="M9861 1293 c-30 -66 -341 -784 -341 -788 0 -3 28 -5 63 -5 l62 0 40
100 40 100 196 0 195 0 40 -97 40 -98 67 -3 67 -3 -23 53 c-13 29 -93 214
-177 411 l-154 357 -51 0 c-47 0 -53 -3 -64 -27z m132 -290 c36 -93 69 -176
73 -185 6 -17 -5 -18 -146 -18 -141 0 -152 1 -146 18 39 105 141 352 146 352
3 0 36 -75 73 -167z"/>
<path d="M12020 1300 c-43 -43 -11 -120 50 -120 38 0 70 32 70 70 0 38 -32 70
-70 70 -17 0 -39 -9 -50 -20z"/>
<path d="M12310 1130 l0 -80 -55 0 -55 0 0 -45 0 -45 55 0 55 0 0 -177 c0
-150 3 -183 18 -212 32 -65 95 -90 186 -77 l46 7 0 44 0 44 -49 -6 c-41 -5
-52 -2 -70 16 -20 20 -21 31 -21 191 l0 170 70 0 70 0 0 45 0 45 -70 0 -70 0
0 80 0 80 -55 0 -55 0 0 -80z"/>
<path d="M13880 1130 l0 -80 -55 0 -55 0 0 -35 0 -35 -47 30 c-82 52 -165 63
-260 35 -60 -18 -135 -80 -166 -139 -18 -34 -22 -57 -22 -136 0 -112 17 -154
89 -217 101 -89 281 -97 377 -16 l32 27 -39 32 -38 32 -32 -24 c-62 -47 -151
-44 -210 8 -52 46 -68 83 -68 158 0 75 16 112 68 158 60 52 147 55 206 6 l30
-26 37 29 c33 24 45 28 96 25 l57 -3 0 -177 c0 -149 3 -182 18 -211 32 -65 95
-90 186 -77 l46 7 0 44 0 44 -49 -6 c-41 -5 -52 -2 -70 16 -20 20 -21 31 -21
191 l0 170 70 0 70 0 0 45 0 45 -70 0 -70 0 0 80 0 80 -55 0 -55 0 0 -80z"/>
<path d="M2884 1187 c-3 -8 -4 -36 -2 -63 l3 -49 65 0 65 0 0 60 0 60 -63 3
c-47 2 -64 -1 -68 -11z"/>
<path d="M3322 1058 c-9 -9 -12 -60 -12 -185 l0 -172 -97 -3 -98 -3 0 -95 0
-95 98 -3 97 -3 0 101 0 100 110 0 111 0 -3 108 -3 107 -32 3 -32 3 -3 72 -3
72 -60 3 c-38 2 -65 -2 -73 -10z"/>
<path d="M6396 1040 c-68 -26 -131 -91 -157 -160 -31 -81 -23 -188 18 -261 84
-151 310 -183 451 -65 17 15 32 32 32 36 0 5 -15 21 -34 35 l-34 26 -46 -34
c-25 -20 -63 -38 -84 -42 -76 -13 -163 30 -197 96 -32 60 -37 59 206 59 l222
0 -6 68 c-8 93 -30 144 -88 196 -75 67 -183 85 -283 46z m193 -88 c35 -26 58
-61 66 -99 l7 -33 -166 0 c-182 0 -182 0 -152 58 47 90 173 128 245 74z"/>
<path d="M7802 1045 c-19 -8 -47 -29 -63 -46 l-29 -31 0 41 0 41 -50 0 -50 0
0 -275 0 -275 49 0 49 0 4 178 c3 177 3 179 30 214 32 42 84 63 139 55 l39 -5
0 59 0 59 -42 0 c-24 -1 -58 -7 -76 -15z"/>
<path d="M8470 1045 c-60 -19 -125 -75 -157 -139 -23 -44 -27 -63 -27 -136 0
-101 23 -159 86 -216 59 -53 101 -68 193 -68 94 0 163 25 214 78 l32 33 -40
28 -41 27 -35 -30 c-69 -61 -166 -64 -241 -7 -29 22 -64 79 -64 104 0 8 67 11
221 11 l222 0 -5 73 c-13 195 -169 300 -358 242z m180 -90 c34 -18 60 -56 67
-101 l6 -34 -167 0 -167 0 7 23 c3 12 12 33 19 47 40 78 150 109 235 65z"/>
<path d="M10605 1046 c-17 -7 -45 -30 -63 -50 -29 -34 -32 -35 -32 -14 0 58
-9 68 -61 68 l-49 0 0 -275 0 -275 54 0 54 0 4 178 c3 157 5 181 24 212 30 52
78 80 135 80 l49 0 0 45 0 45 -42 0 c-24 -1 -57 -7 -73 -14z"/>
<path d="M10949 1045 c-56 -18 -132 -83 -162 -139 -18 -34 -22 -57 -22 -136 0
-112 17 -154 89 -217 101 -89 281 -97 377 -16 l32 27 -39 32 -38 32 -32 -24
c-62 -47 -151 -44 -210 8 -52 46 -68 83 -68 158 0 75 16 112 68 158 60 52 147
55 206 6 l30 -26 40 32 c47 37 45 43 -32 85 -63 35 -167 43 -239 20z"/>
<path d="M12812 1042 c-71 -26 -136 -90 -163 -162 -27 -71 -23 -184 9 -246 63
-123 211 -182 353 -141 50 15 139 77 139 97 0 4 -16 20 -35 35 l-36 27 -35
-32 c-44 -38 -73 -50 -125 -50 -77 0 -161 66 -175 138 l-6 32 222 0 223 0 -7
58 c-4 31 -12 74 -18 95 -15 49 -70 113 -122 139 -58 30 -156 34 -224 10z
m172 -86 c36 -15 69 -56 80 -98 l6 -28 -165 0 c-182 0 -183 0 -142 61 44 66
146 96 221 65z"/>
<path d="M15085 1046 c-17 -7 -45 -30 -63 -50 -29 -34 -32 -35 -32 -14 0 58
-9 68 -61 68 l-49 0 0 -275 0 -275 54 0 54 0 4 178 c3 157 5 181 24 212 30 52
78 80 135 80 l49 0 0 45 0 45 -42 0 c-24 -1 -57 -7 -73 -14z"/>
<path d="M15422 1042 c-71 -26 -136 -90 -163 -162 -27 -71 -23 -184 9 -246 63
-123 211 -182 353 -141 50 15 139 77 139 97 0 4 -16 20 -35 35 l-36 27 -35
-32 c-44 -38 -73 -50 -125 -50 -77 0 -161 66 -175 138 l-6 32 222 0 223 0 -7
58 c-4 31 -12 74 -18 95 -15 49 -70 113 -122 139 -58 30 -156 34 -224 10z
m172 -86 c36 -15 69 -56 80 -98 l6 -28 -165 0 c-182 0 -183 0 -142 61 44 66
146 96 221 65z"/>
<path d="M8047 1044 c-4 -4 -7 -128 -7 -276 l0 -268 55 0 55 0 -2 273 -3 272
-45 3 c-25 2 -49 0 -53 -4z"/>
<path d="M12020 775 l0 -275 50 0 50 0 0 275 0 275 -50 0 -50 0 0 -275z"/>
<path d="M14230 848 c0 -106 5 -210 10 -230 30 -108 160 -167 268 -123 20 9
54 32 75 53 l37 36 0 -42 0 -42 50 0 50 0 0 270 0 270 -55 0 -55 0 0 -173 c0
-162 -2 -177 -23 -217 -54 -103 -192 -107 -232 -8 -11 30 -15 80 -15 218 l0
180 -55 0 -55 0 0 -192z"/>
<path d="M2757 924 c-4 -4 -7 -47 -7 -96 l0 -89 93 3 92 3 0 90 0 90 -85 3
c-47 1 -89 0 -93 -4z"/>
<path d="M2757 684 c-4 -4 -7 -47 -7 -96 l0 -89 93 3 92 3 0 90 0 90 -85 3
c-47 1 -89 0 -93 -4z"/>
<path d="M3114 437 c-3 -8 -4 -39 -2 -68 l3 -54 70 0 70 0 0 65 0 65 -68 3
c-51 2 -69 -1 -73 -11z"/>
</g>
</svg>
